<svg width="327" height="40" viewBox="0 0 327 40" fill="none" xmlns="http://www.w3.org/2000/svg">
<path d="M123.939 0.25045H70.7377C68.2594 0.25045 66.2504 2.2595 66.2504 4.7378V35.2518C66.2504 37.73 68.2594 39.7391 70.7377 39.7391H123.939C126.417 39.7391 128.426 37.73 128.426 35.2518V4.7378C128.426 2.2595 126.417 0.25045 123.939 0.25045Z" fill="white"/>
<path d="M123.939 0.500913C126.277 0.500913 128.176 2.40021 128.176 4.7378V35.2622C128.176 37.5998 126.277 39.4991 123.939 39.4991H70.7378C68.4002 39.4991 66.5009 37.5998 66.5009 35.2622V35.2622V4.7378C66.5009 2.40021 68.4002 0.500913 70.7378 0.500913H123.939ZM123.939 0H70.7378C68.1184 0 66 2.11844 66 4.7378V35.2622C66 37.8816 68.1184 40 70.7378 40H123.939C126.558 40 128.677 37.8816 128.677 35.2622V4.7378C128.677 2.11844 126.558 0 123.939 0Z" fill="#D3D4D4"/>
<path d="M86.725 33.436V31.7141C86.725 31.0567 86.318 30.6288 85.6397 30.6288C85.2953 30.6288 84.9196 30.7436 84.6692 31.1193C84.4709 30.8062 84.1787 30.6288 83.7508 30.6288C83.4691 30.6288 83.1769 30.7123 82.9473 31.0358V30.6914H82.342V33.436H82.9473V31.9124C82.9473 31.4219 83.2082 31.1924 83.6047 31.1924C84.0013 31.1924 84.21 31.4533 84.21 31.9124V33.4256H84.8153V31.9124C84.8153 31.4219 85.097 31.1924 85.4727 31.1924C85.8797 31.1924 86.078 31.4533 86.078 31.9124V33.4256H86.7354L86.725 33.436ZM95.6266 30.6914H94.6561V29.8566H94.0508V30.6914H93.5082V31.2341H94.0508V32.4968C94.0508 33.123 94.3117 33.4986 95.0005 33.4986C95.2614 33.4986 95.5223 33.4256 95.7414 33.3004L95.5745 32.789C95.4179 32.8829 95.2405 32.9351 95.0631 32.9351C94.7813 32.9351 94.6561 32.7682 94.6561 32.476V31.2445H95.6266V30.7019V30.6914ZM100.719 30.6393C100.427 30.6393 100.156 30.7854 99.9992 31.0463V30.7019H99.3939V33.4465H99.9992V31.902C99.9992 31.4428 100.197 31.1819 100.573 31.1819C100.698 31.1819 100.824 31.2028 100.949 31.2341L101.116 30.6601C100.98 30.6393 100.844 30.6288 100.709 30.6288L100.719 30.6393ZM93.0177 30.921C92.7359 30.7228 92.329 30.6393 91.9011 30.6393C91.2123 30.6393 90.7532 30.9836 90.7532 31.5263C90.7532 31.9855 91.0975 32.2464 91.7028 32.3299L91.9846 32.3612C92.2977 32.4133 92.4751 32.5073 92.4751 32.6429C92.4751 32.8412 92.2455 32.9873 91.8489 32.9873C91.5254 32.9873 91.2019 32.8934 90.9306 32.7055L90.6488 33.1647C90.9619 33.3943 91.3897 33.5091 91.828 33.5091C92.6316 33.5091 93.0908 33.1334 93.0908 32.6221C93.0908 32.1316 92.7151 31.8811 92.1411 31.7872L91.8594 31.7559C91.5985 31.7246 91.4002 31.6724 91.4002 31.495C91.4002 31.2967 91.5985 31.1819 91.9115 31.1819C92.2559 31.1819 92.6003 31.328 92.7673 31.4115L93.0281 30.921H93.0177ZM108.995 30.6288C108.703 30.6288 108.431 30.7749 108.275 31.0358V30.6914H107.669V33.436H108.275V31.8916C108.275 31.4324 108.473 31.1715 108.849 31.1715C108.974 31.1715 109.099 31.1924 109.224 31.2237L109.391 30.6497C109.256 30.6288 109.12 30.6184 108.984 30.6184L108.995 30.6288ZM101.325 32.0585C101.325 32.8934 101.898 33.4882 102.786 33.4882C103.193 33.4882 103.474 33.4047 103.756 33.1751L103.474 32.6847C103.245 32.8621 103.015 32.9456 102.754 32.9456C102.264 32.9456 101.919 32.6012 101.919 32.0585C101.919 31.5472 102.264 31.2028 102.754 31.1715C103.015 31.1715 103.245 31.255 103.474 31.4324L103.756 30.9419C103.474 30.7123 103.182 30.6288 102.786 30.6288C101.898 30.6288 101.325 31.2341 101.325 32.0585V32.0585ZM106.876 32.0585V30.681H106.271V31.0254C106.073 30.7645 105.781 30.6184 105.415 30.6184C104.643 30.6184 104.038 31.2237 104.038 32.0481C104.038 32.8725 104.643 33.4778 105.415 33.4778C105.822 33.4778 106.104 33.3317 106.271 33.0708V33.4152H106.876V32.0377V32.0585ZM104.674 32.0585C104.674 31.568 104.987 31.1715 105.509 31.1715C106 31.1715 106.344 31.5472 106.344 32.0585C106.344 32.549 106 32.9456 105.509 32.9456C104.998 32.9143 104.674 32.5386 104.674 32.0585ZM97.4842 30.6288C96.6806 30.6288 96.1067 31.2028 96.1067 32.0585C96.1067 32.9143 96.6806 33.4882 97.5051 33.4882C97.9121 33.4882 98.3086 33.3734 98.6217 33.1125L98.3399 32.6847C98.1103 32.8621 97.8286 32.9664 97.5364 32.9664C97.1607 32.9664 96.7954 32.7995 96.7015 32.309H98.7365V32.0794C98.7678 31.1924 98.246 30.6184 97.4738 30.6184L97.4842 30.6288ZM97.4842 31.1402C97.8599 31.1402 98.1103 31.3698 98.1729 31.7976H96.7433C96.7954 31.4219 97.0563 31.1402 97.4842 31.1402ZM112.397 32.0585V29.5957H111.792V31.0254C111.593 30.7645 111.301 30.6184 110.936 30.6184C110.164 30.6184 109.558 31.2237 109.558 32.0481C109.558 32.8725 110.164 33.4778 110.936 33.4778C111.343 33.4778 111.625 33.3317 111.792 33.0708V33.4152H112.397V32.0377V32.0585ZM110.195 32.0585C110.195 31.568 110.508 31.1715 111.03 31.1715C111.52 31.1715 111.865 31.5472 111.865 32.0585C111.865 32.549 111.52 32.9456 111.03 32.9456C110.518 32.9143 110.195 32.5386 110.195 32.0585ZM90.0957 32.0585V30.681H89.5009V31.0254C89.3026 30.7645 89.0104 30.6184 88.6452 30.6184C87.8729 30.6184 87.2676 31.2237 87.2676 32.0481C87.2676 32.8725 87.8729 33.4778 88.6452 33.4778C89.0522 33.4778 89.3339 33.3317 89.5009 33.0708V33.4152H90.1062V32.0377L90.0957 32.0585ZM87.8625 32.0585C87.8625 31.568 88.1756 31.1715 88.6973 31.1715C89.1878 31.1715 89.5322 31.5472 89.5322 32.0585C89.5322 32.549 89.1878 32.9456 88.6973 32.9456C88.186 32.9143 87.8729 32.549 87.8729 32.0585H87.8625Z" fill="#020202" stroke="#939598" stroke-width="0.05" stroke-miterlimit="10"/>
<path d="M101.846 9.80957H92.83V26.0162H101.846V9.80957Z" fill="#F26324" stroke="#939598" stroke-width="0.05" stroke-miterlimit="10"/>
<path d="M93.4041 17.9076C93.4041 14.6099 94.9486 11.6984 97.328 9.79906C92.851 6.28224 86.3705 7.05448 82.8537 11.5314C79.3368 16.0083 80.1091 22.4889 84.586 26.0057C88.322 28.9486 93.592 28.9486 97.328 26.0057C94.8443 24.0542 93.4041 21.0592 93.4041 17.8972V17.9076Z" fill="#E92328" stroke="#939598" stroke-width="0.05" stroke-miterlimit="10"/>
<path d="M114.015 17.9076C114.015 23.5951 109.413 28.2077 103.736 28.2181C101.419 28.2181 99.1751 27.4458 97.3593 26.0162C99.843 24.0647 101.294 21.0696 101.283 17.9076C101.283 14.61 99.7387 11.6984 97.3593 9.7991C99.1647 8.36941 101.408 7.59717 103.715 7.59717C109.413 7.59717 114.025 12.241 114.025 17.9076H114.015Z" fill="#F59E21" stroke="#939598" stroke-width="0.05" stroke-miterlimit="10"/>
<path d="M321.939 0.25045H268.738C266.26 0.25045 264.251 2.25951 264.251 4.7378V35.2518C264.251 37.73 266.26 39.7391 268.738 39.7391H321.939C324.417 39.7391 326.426 37.73 326.426 35.2518V4.7378C326.426 2.25951 324.417 0.25045 321.939 0.25045Z" fill="white"/>
<path d="M321.939 0.500909C324.277 0.500909 326.176 2.40021 326.176 4.7378V35.2622C326.176 37.5998 324.277 39.4991 321.939 39.4991H268.738C266.4 39.4991 264.501 37.5998 264.501 35.2622V35.2622V4.7378C264.501 2.40021 266.4 0.500909 268.738 0.500909H321.939ZM321.939 0H268.738C266.118 0 264 2.11845 264 4.7378V35.2622C264 37.8816 266.118 40 268.738 40H321.939C324.558 40 326.677 37.8816 326.677 35.2622V4.7378C326.677 2.11845 324.558 0 321.939 0Z" fill="#D3D4D4"/>
<path d="M270.428 23.3445L270.835 21.247L271.253 19.0346L271.608 16.8014L271.942 14.7038L271.973 14.5681H273.455C273.455 14.5681 273.434 14.662 273.424 14.7038C273.371 14.9542 273.267 15.5178 273.121 16.3839C273.037 16.8535 272.933 17.3858 272.818 17.991L272.787 18.1789H272.912L274.843 18.1998L276.732 18.1789H276.878L276.899 17.991C276.982 17.4693 277.055 16.9162 277.17 16.3318C277.389 15.1525 277.4 15.0795 277.462 14.5681H278.965C278.965 14.5681 278.944 14.662 278.923 14.7038C278.892 14.8395 278.767 15.5282 278.537 16.8014L278.12 19.0346L277.744 21.247C277.535 22.4993 277.42 23.1984 277.4 23.3445C277.4 23.3863 277.4 23.4385 277.389 23.4802H275.876L275.907 23.3445C275.949 23.188 276.012 22.7915 276.116 22.1862C276.158 21.9566 276.241 21.5705 276.346 20.9756L276.565 19.7964C276.627 19.4416 276.669 19.2225 276.679 19.1703C276.679 19.139 276.69 19.1077 276.711 19.0346H276.533C276.283 19.0242 275.375 19.0242 274.498 19.0242C273.622 19.0242 273.058 19.0242 272.787 19.0346H272.61C272.578 19.2955 272.568 19.3372 272.484 19.7964C272.422 20.1408 272.349 20.5478 272.286 20.9756C272.182 21.6018 272.109 22.0088 272.088 22.1862C271.983 22.8332 271.91 23.2089 271.889 23.355C271.889 23.3967 271.889 23.4385 271.879 23.4906H270.387L270.418 23.355L270.428 23.3445Z" fill="#B32226"/>
<path d="M278.746 23.3446L279.028 21.9149L279.33 20.3078L279.581 18.7529C279.706 17.9598 279.79 17.4588 279.81 17.2606C279.81 17.2188 279.81 17.1771 279.821 17.1353H281.136C281.136 17.1353 281.115 17.2188 281.104 17.2606C281.052 17.4693 280.969 17.9598 280.812 18.7529L280.52 20.3078L280.259 21.9149C280.144 22.6663 280.061 23.1567 280.04 23.3446C280.04 23.3863 280.04 23.4281 280.04 23.4698H278.725L278.767 23.3446H278.746ZM280.092 15.4761C280.092 14.8291 280.416 14.4429 280.969 14.4429C281.355 14.4429 281.543 14.6203 281.543 14.996C281.543 15.6326 281.209 16.0292 280.656 16.0292C280.332 16.0292 280.144 15.9039 280.092 15.6639C280.092 15.6013 280.082 15.5491 280.092 15.4865" fill="#B32226"/>
<path d="M280.728 26.1728C280.791 25.891 280.948 25.0979 281.188 23.7725L281.605 21.4871L281.981 19.2956C282.158 18.2208 282.263 17.5424 282.304 17.2607C282.304 17.2189 282.304 17.1772 282.315 17.1354H283.452L283.421 17.2607L283.358 17.6155L283.337 17.7616C283.953 17.2294 284.579 16.9998 285.414 16.9998C286.844 16.9998 287.606 17.7825 287.606 19.233C287.606 20.0366 287.386 20.9445 287.021 21.748C286.416 23.0107 285.425 23.6473 284.089 23.6473C283.243 23.6473 282.857 23.4177 282.555 22.7498L282.534 22.8959L282.242 24.7848C282.137 25.4214 282.064 25.8805 282.033 26.1519C282.033 26.2041 282.033 26.2562 282.023 26.298H280.697C280.711 26.2354 280.725 26.1867 280.739 26.1519L280.728 26.1728ZM283.285 18.6695L282.868 21.0488C282.837 21.2054 282.826 21.3723 282.816 21.5393C282.816 22.3637 283.233 22.7812 284.068 22.7812C284.621 22.7812 285.07 22.5829 285.393 22.2176C285.915 21.6228 286.27 20.4436 286.27 19.3687C286.27 18.2938 285.811 17.8242 284.809 17.8242C284.235 17.8242 283.692 18.0642 283.317 18.4921L283.275 18.6799L283.285 18.6695Z" fill="#B32226"/>
<path d="M290.517 23.616C288.795 23.616 287.95 22.8751 287.95 21.341C287.95 20.4957 288.169 19.5565 288.534 18.7634C289.098 17.5737 290.141 16.9893 291.686 16.9893C293.23 16.9893 293.888 17.5529 293.888 18.659C293.888 18.9825 293.804 19.473 293.679 20.047H293.543C293.314 20.0261 292.594 20.0261 291.394 20.0261C290.371 20.0261 289.745 20.0261 289.505 20.0366H289.369C289.254 20.621 289.244 20.7671 289.244 21.174C289.244 22.1967 289.828 22.7498 290.924 22.7498C291.644 22.7498 292.333 22.6142 293.095 22.2802L292.907 23.3029C292.124 23.5116 291.31 23.616 290.507 23.6264L290.517 23.616ZM289.682 19.3269C289.828 19.3374 290.298 19.3374 291.091 19.3374H291.289C291.863 19.3374 292.26 19.3374 292.489 19.3269H292.604L292.625 19.16C292.646 19.0243 292.667 18.8782 292.667 18.7425C292.667 18.1164 292.239 17.8138 291.425 17.8138C290.392 17.8138 289.797 18.2729 289.536 19.3269H289.682Z" fill="#B32226"/>
<path d="M294.086 23.3447L294.368 21.915L294.671 20.3079L294.921 18.753C295.046 17.9599 295.119 17.4589 295.151 17.2607C295.151 17.2294 295.161 17.198 295.161 17.1354H296.309L296.288 17.2607L296.142 18.0642L296.1 18.2416C296.236 18.0225 296.382 17.8138 296.559 17.6155C296.925 17.2085 297.394 16.9893 297.885 16.9893C298.135 16.9893 298.375 17.0415 298.605 17.1563L298.438 18.0746C298.198 17.9912 297.937 17.9494 297.687 17.9494C296.925 17.9494 296.246 18.6382 295.975 19.6922C295.871 20.0887 295.787 20.5479 295.693 21.0906C295.432 22.6872 295.412 22.8125 295.359 23.4803H294.055L294.076 23.3551L294.086 23.3447Z" fill="#B32226"/>
<path d="M303.197 18.1268C302.675 17.939 302.122 17.8346 301.558 17.8346C300.932 17.8346 300.462 17.9912 300.139 18.2938C299.617 18.7947 299.21 20.0261 299.21 21.1427C299.21 22.2594 299.68 22.7498 300.65 22.7498C301.224 22.7498 301.965 22.5724 302.476 22.3115L302.299 23.2821C301.642 23.5012 300.953 23.616 300.264 23.616C299.262 23.616 298.72 23.3864 298.292 22.8125C298.01 22.4055 297.895 21.9776 297.895 21.3097C297.895 20.4018 298.114 19.5148 298.521 18.7008C298.709 18.3251 298.96 17.9912 299.273 17.7198C299.836 17.2085 300.546 16.9893 301.715 16.9893C302.122 16.9893 302.56 17.0206 303.249 17.0833H303.374L303.197 18.1268V18.1268Z" fill="#B32226"/>
<path d="M305.117 23.6161C303.823 23.6161 303.218 23.0839 303.218 21.9568C303.218 20.2976 304.386 19.3375 306.421 19.3375C306.745 19.3375 307.371 19.3583 307.788 19.3897L307.82 19.254C307.903 18.7948 307.903 18.7531 307.903 18.5965C307.903 18.0852 307.486 17.8243 306.609 17.8243C305.952 17.8243 305.305 17.9287 304.48 18.1582L304.741 17.1042C304.741 17.1042 304.814 17.1147 304.856 17.1147C305.179 17.1147 305.503 17.0834 305.826 17.0416C306.213 16.9999 306.588 16.979 306.954 16.979C308.477 16.979 309.155 17.3756 309.155 18.2522C309.155 18.4817 309.114 18.7322 309.02 19.2957L308.811 20.4541C308.581 21.6959 308.456 22.6769 308.456 23.2509C308.456 23.3135 308.456 23.3865 308.467 23.4491H307.319V23.3448C307.319 23.1674 307.371 22.7708 307.423 22.3951C306.849 23.2404 306.171 23.5848 305.138 23.5848L305.117 23.6161ZM307.538 20.0888C307.256 20.0575 306.974 20.0471 306.693 20.0471C305.91 20.0471 305.451 20.1515 305.096 20.4332C304.71 20.7254 304.48 21.2159 304.48 21.7481C304.48 22.3847 304.866 22.7291 305.566 22.7291C306.254 22.7291 306.891 22.343 307.204 21.7272C307.392 21.3203 307.538 20.8193 307.663 20.0993H307.538V20.0888Z" fill="#B32226"/>
<path d="M309.542 23.3447L309.823 21.915L310.136 20.3079L310.387 18.753C310.512 17.9599 310.585 17.4589 310.616 17.2607C310.616 17.2294 310.627 17.198 310.627 17.1354H311.775L311.743 17.2607L311.597 18.0642L311.556 18.2416C311.691 18.0225 311.848 17.8138 312.015 17.6155C312.37 17.2085 312.85 16.9893 313.34 16.9893C313.591 16.9893 313.831 17.0415 314.05 17.1563L313.883 18.0746C313.643 17.9912 313.382 17.9494 313.131 17.9494C312.37 17.9494 311.691 18.6382 311.42 19.6922C311.316 20.0887 311.232 20.5479 311.138 21.0906C310.888 22.6872 310.856 22.8125 310.804 23.4803H309.5L309.521 23.3551L309.542 23.3447Z" fill="#B32226"/>
<path d="M315.553 23.616C314.06 23.616 313.361 22.9272 313.361 21.4349C313.361 20.5375 313.58 19.6504 313.987 18.8573C314.603 17.6363 315.657 16.9893 317.066 16.9893C317.441 16.9893 317.817 17.0206 318.182 17.1041C318.287 17.1459 318.349 17.1563 318.537 17.2189L318.558 17.0624C318.61 16.8119 318.673 16.4049 318.767 15.8414C318.871 15.2257 318.934 14.777 318.975 14.4952V14.3908H320.29L320.269 14.4848C320.165 14.9961 320.019 15.7579 319.821 16.8119C319.476 18.6799 319.351 19.3791 319.153 20.5375C318.923 21.9567 318.819 22.8229 318.819 23.3864V23.4803H317.629C317.629 23.3029 317.65 23.1255 317.681 22.9481C317.723 22.7394 317.734 22.6663 317.754 22.4472C317.243 23.3134 316.659 23.6264 315.553 23.6264V23.616ZM317.118 17.8346C316.554 17.8346 316.095 17.9807 315.761 18.2834C315.125 18.8469 314.686 20.0574 314.686 21.3097C314.686 22.322 315.093 22.7811 315.991 22.7811C316.659 22.7811 317.285 22.395 317.556 21.8106C317.681 21.5289 317.786 21.1845 317.88 20.7879C318.036 20.0052 318.235 18.8991 318.349 18.2207V18.0851C317.901 17.9181 317.546 17.8451 317.107 17.8451" fill="#B32226"/>
<path d="M189.939 0.250488H136.738C134.259 0.250488 132.25 2.25954 132.25 4.73784V35.2518C132.25 37.7301 134.259 39.7391 136.738 39.7391H189.939C192.417 39.7391 194.426 37.7301 194.426 35.2518V4.73784C194.426 2.25954 192.417 0.250488 189.939 0.250488Z" fill="white"/>
<path d="M189.939 0.500913C192.276 0.500913 194.176 2.40021 194.176 4.7378V35.2622C194.176 37.5998 192.276 39.4991 189.939 39.4991H136.738C134.4 39.4991 132.501 37.5998 132.501 35.2622V4.7378C132.501 2.40021 134.4 0.500913 136.738 0.500913H189.939ZM189.939 0H136.738C134.118 0 132 2.11845 132 4.7378V35.2622C132 37.8816 134.118 40 136.738 40H189.939C192.558 40 194.677 37.8816 194.677 35.2622V4.7378C194.677 2.11845 192.558 0 189.939 0Z" fill="#D3D4D4"/>
<path d="M147.674 15.1317C150.367 14.2342 153.278 15.6952 154.176 18.3876C154.238 18.5859 154.29 18.7738 154.332 18.972L157.849 18.252C156.878 13.5246 152.266 10.4878 147.549 11.4479C147.205 11.521 146.871 11.6044 146.537 11.7192L147.674 15.1213V15.1317Z" fill="#FFCC04"/>
<path d="M143.521 26.5379L145.9 23.8455C143.782 21.9671 143.584 18.7216 145.462 16.6031C145.598 16.4466 145.744 16.3005 145.9 16.1648L143.521 13.4724C139.91 16.6657 139.576 22.1758 142.77 25.7865C143.01 26.0474 143.26 26.3083 143.521 26.5379Z" fill="#1CA2DC"/>
<path d="M154.332 21.0279C153.758 23.8038 151.045 25.5988 148.269 25.0248C148.071 24.9831 147.872 24.9309 147.685 24.8683L146.547 28.2703C151.128 29.7939 156.064 27.3206 157.599 22.7394C157.703 22.4159 157.797 22.0819 157.87 21.7376L154.353 21.0175L154.332 21.0279Z" fill="#EE4523"/>
<path d="M160.928 23.9604C160.792 23.7308 160.667 23.5012 160.562 23.2612C160.009 21.9672 159.978 20.6314 160.447 19.3478C160.969 17.939 161.95 16.8641 163.234 16.311C164.841 15.6223 166.615 15.7579 168.159 16.6658C169.14 17.2294 169.829 18.0955 170.361 19.3165C170.424 19.473 170.487 19.64 170.549 19.7861L160.948 23.9708L160.928 23.9604ZM164.131 18.3773C162.994 18.8678 162.399 19.9322 162.524 21.1949L167.356 19.1182C166.521 18.1373 165.446 17.8138 164.131 18.3773V18.3773ZM167.961 22.8959L167.857 22.8333C167.565 23.3029 167.116 23.6786 166.552 23.9291C165.477 24.3987 164.476 24.2839 163.756 23.6473L163.693 23.7517L162.472 25.5883C162.775 25.7971 163.098 25.9745 163.443 26.1206C164.799 26.6841 166.177 26.6528 167.544 26.0684C168.535 25.6405 169.307 24.9935 169.829 24.1587L167.961 22.9064V22.8959Z" fill="#0B2444"/>
<path d="M173.889 13.5977V23.783L175.475 24.43L174.577 26.5276L172.824 25.7971C172.469 25.6405 172.177 25.3901 171.958 25.077C171.76 24.7744 171.624 24.3674 171.624 23.8143V13.5977H173.889V13.5977Z" fill="#0B2444"/>
<path d="M177.99 21.1949C177.99 20.36 178.355 19.5669 178.981 19.0243L177.353 17.2084C175.151 19.1599 174.943 22.5202 176.894 24.7221C177.04 24.8891 177.186 25.0352 177.353 25.1813L178.981 23.3655C178.355 22.8124 178 22.0297 178 21.1949H177.99Z" fill="#0B2444"/>
<path d="M180.881 24.0856C180.568 24.0856 180.265 24.0334 179.962 23.9395L179.19 26.2458C181.976 27.185 185.003 25.6718 185.932 22.8855C185.994 22.6872 186.057 22.4785 186.099 22.2698L183.709 21.7793C183.427 23.1255 182.248 24.0856 180.881 24.0856V24.0856Z" fill="#0B2444"/>
<path d="M180.881 15.8726C180.307 15.8726 179.733 15.9665 179.19 16.1439L179.962 18.4502C180.255 18.3563 180.568 18.3041 180.881 18.3041C182.258 18.3041 183.437 19.2746 183.709 20.6208L186.099 20.1408C185.598 17.6571 183.417 15.8726 180.881 15.8726V15.8726Z" fill="#0B2444"/>
<path d="M57.9389 0.25045H4.73779C2.2595 0.25045 0.250443 2.25951 0.250443 4.7378V35.2518C0.250443 37.7301 2.2595 39.7391 4.73779 39.7391H57.9389C60.4172 39.7391 62.4263 37.7301 62.4263 35.2518V4.7378C62.4263 2.25951 60.4172 0.25045 57.9389 0.25045Z" fill="white"/>
<path d="M57.9389 0.500913C60.2765 0.500913 62.1758 2.40021 62.1758 4.7378V35.2622C62.1758 37.5998 60.2765 39.4991 57.9389 39.4991H4.7378C2.40021 39.4991 0.500913 37.5998 0.500913 35.2622V35.2622V4.7378C0.500913 2.40021 2.40021 0.500913 4.7378 0.500913H57.9389ZM57.9389 0H4.7378C2.11844 0 0 2.11845 0 4.7378V35.2622C0 37.8816 2.11844 40 4.7378 40H57.9389C60.5583 40 62.6768 37.8816 62.6768 35.2622V4.7378C62.6768 2.11845 60.5583 0 57.9389 0Z" fill="#D3D4D4"/>
<path d="M29.9296 13.4306L27.112 26.6005H23.6995L26.5171 13.4306H29.9296V13.4306ZM44.2682 21.9357L46.0632 16.9892L47.0963 21.9357H44.2682ZM48.0773 26.6005H51.2289L48.4738 13.4306H45.5623C44.9257 13.4306 44.3517 13.8063 44.1117 14.4011L38.9982 26.6109H42.5777L43.2873 24.649H47.6598L48.0773 26.6109V26.6005ZM39.1861 22.301C39.1965 18.8259 34.3856 18.638 34.417 17.0727C34.4274 16.6031 34.8761 16.1022 35.8571 15.9665C36.3476 15.9039 37.6938 15.8517 39.2174 16.5613L39.8122 13.7646C38.9878 13.4724 37.9338 13.1802 36.6293 13.1802C33.2586 13.1802 30.8897 14.9647 30.8688 17.5319C30.848 19.4312 32.5594 20.4852 33.8534 21.1113C35.1788 21.7583 35.6275 22.1757 35.6171 22.7497C35.6171 23.6367 34.5526 24.0229 33.5821 24.0437C31.8706 24.075 30.8793 23.5846 30.0861 23.2089L29.4704 26.0996C30.2636 26.4648 31.735 26.7779 33.2586 26.7987C36.838 26.7987 39.1861 25.0351 39.1965 22.2905L39.1861 22.301ZM25.0875 13.4202L19.567 26.59H15.9667L13.2534 16.0813C13.0864 15.4343 12.9403 15.1943 12.4394 14.9229C11.6254 14.4742 10.2688 14.0568 9.0791 13.8063L9.16259 13.4202H14.9648C15.7058 13.4202 16.3632 13.9107 16.5406 14.7664L17.9807 22.3845L21.5289 13.4202H25.1083H25.0875Z" fill="#143A63"/>
<path d="M255.939 0.25045H202.738C200.26 0.25045 198.25 2.25951 198.25 4.7378V35.2518C198.25 37.73 200.26 39.7391 202.738 39.7391H255.939C258.417 39.7391 260.426 37.73 260.426 35.2518V4.7378C260.426 2.25951 258.417 0.25045 255.939 0.25045Z" fill="white"/>
<path d="M255.939 0.500909C258.277 0.500909 260.176 2.40021 260.176 4.7378V35.2622C260.176 37.5998 258.277 39.4991 255.939 39.4991H202.738C200.4 39.4991 198.501 37.5998 198.501 35.2622V4.7378C198.501 2.40021 200.4 0.500909 202.738 0.500909H255.939ZM255.939 0H202.738C200.118 0 198 2.11845 198 4.7378V35.2622C198 37.8816 200.118 40 202.738 40H255.939C258.558 40 260.677 37.8816 260.677 35.2622V4.7378C260.677 2.11845 258.558 0 255.939 0Z" fill="#D3D4D4"/>
<path d="M210.951 14.0568L205.587 25.9222H212.005L212.798 24.0334H214.614L215.407 25.9222H222.472V24.4821L223.098 25.9222H226.75L227.376 24.4508V25.9222H242.07L243.854 24.0751L245.524 25.9222H253.069L247.695 20.0261L253.069 14.0568H245.639L243.896 15.8622L242.279 14.0568H226.291L224.914 17.1249L223.505 14.0568H217.097V15.4552L216.388 14.0568H210.909H210.951ZM218.882 15.737H222.305L225.049 21.5079L227.585 15.737H230.998V24.2525H228.921L228.9 17.5841L225.874 24.2525H224.016L220.969 17.5841V24.2525H216.701L215.887 22.3428H211.514L210.711 24.2525H208.425L212.182 15.737H215.313L218.871 23.7829V15.737H218.882ZM232.887 15.737H241.329L243.907 18.5233L246.568 15.737H249.145L245.222 20.0156L249.145 24.2421H246.453L243.875 21.4244L241.193 24.2421H232.887V15.737V15.737ZM213.706 17.1771L212.266 20.5791H215.146L213.706 17.1771V17.1771ZM234.963 17.5006V19.0555H239.565V20.7879H234.963V22.4889H240.129L242.529 19.9843L240.233 17.5006H234.974H234.963Z" fill="#005C99"/>
</svg>
