<svg width="157" height="63" viewBox="0 0 157 63" fill="none" xmlns="http://www.w3.org/2000/svg">
<g clip-path="url(#clip0_71_78)">
<path d="M146.727 42.6318C142.749 42.6318 139.303 44.9184 137.625 48.2427C138.688 48.8383 139.297 49.9336 139.297 51.3875V55.3715C139.297 55.839 139.028 56.2425 138.599 56.4219L138.554 56.4411L138.509 56.4539C138.138 56.5628 137.734 56.6589 137.311 56.7293C138.842 60.4122 142.48 63.0063 146.72 63.0063C152.344 63.0063 156.904 58.4459 156.904 52.8223C156.904 47.1986 152.344 42.6382 146.72 42.6382L146.727 42.6318Z" fill="#20C4F4"/>
<path d="M104.972 54.6988L104.409 53.7957C104.37 53.7188 104.325 53.6804 104.268 53.6676C104.21 53.6548 104.152 53.674 104.088 53.7252C103.557 54.1544 102.903 54.3593 102.205 54.3593C101.059 54.3593 100.399 53.6804 100.399 52.4955V49.5107C100.399 48.3514 101.072 47.6597 102.193 47.6597C102.833 47.6597 103.461 47.871 103.96 48.2489C104.037 48.2938 104.101 48.313 104.159 48.2938C104.21 48.2809 104.255 48.2361 104.281 48.1785L104.851 47.2689C104.927 47.1408 104.908 47.0127 104.799 46.9295C104.056 46.353 103.108 46.0264 102.193 46.0264C100.643 46.0264 98.7979 46.9039 98.7979 49.4595V52.4955C98.7979 55.0383 100.585 55.9798 102.212 55.9798C103.281 55.9798 104.197 55.6788 104.934 55.0447C105.004 54.9806 105.062 54.8653 104.966 54.6988H104.972Z" fill="#003863"/>
<path d="M121.151 54.5581C121.555 54.5581 121.978 54.5069 122.298 54.4172C122.394 54.3916 122.465 54.3019 122.465 54.1994V50.6446C122.465 50.5229 122.4 50.4205 122.292 50.3628C121.978 50.1963 121.581 50.1002 121.119 50.1002C120.114 50.1002 119.544 50.5614 119.544 51.631V52.9184C119.544 54.1226 120.146 54.5581 121.151 54.5581ZM122.465 46.3853C122.465 46.27 122.561 46.2188 122.676 46.2188H123.854C123.97 46.2188 124.066 46.2444 124.066 46.4109V55.3395C124.066 55.3395 124.066 55.378 124.034 55.4164C124.002 55.4548 123.957 55.4676 123.912 55.4868C123.073 55.7943 122.023 55.9928 121.113 55.9928C119.268 55.9928 117.949 55.0385 117.949 52.9056V51.631C117.949 49.8056 119.198 48.6527 120.959 48.6527C121.517 48.6527 122.048 48.7808 122.465 48.9601V46.3789V46.3853Z" fill="#003863"/>
<path d="M128.46 46.2124H125.571C125.488 46.2124 125.392 46.2508 125.392 46.3853V55.7367C125.392 55.7751 125.424 55.8136 125.468 55.8136H126.897C126.948 55.8136 126.993 55.7687 126.993 55.7175V53.2387C126.993 53.1555 127.057 53.0914 127.14 53.0914H128.383C129.472 53.0914 130.311 52.7712 130.874 52.1947C131.438 51.6183 131.861 50.8689 131.861 49.6007C131.861 48.6463 131.617 47.8841 131.252 47.3653C130.721 46.6031 130.035 46.2188 128.46 46.2188V46.2124ZM128.549 51.5478H127.14C127.057 51.5478 126.993 51.4837 126.993 51.4005V47.9033C126.993 47.8201 127.057 47.756 127.14 47.756H128.626C129.145 47.756 129.529 47.8969 129.766 48.1659C130.003 48.4349 130.183 48.7808 130.183 49.3701C130.183 50.0554 130.067 50.491 129.779 50.8817C129.548 51.1955 129.087 51.5414 128.543 51.5414L128.549 51.5478Z" fill="#003863"/>
<path d="M109.834 50.3882C109.763 50.4587 109.641 50.4651 109.565 50.3946C109.347 50.2025 108.975 50.0936 108.61 50.0936C108.072 50.0936 107.477 50.4971 107.477 51.3938V55.6019C107.477 55.7172 107.38 55.8133 107.265 55.8133H106.08C105.965 55.8133 105.869 55.7172 105.869 55.6019V48.9279C105.869 48.8126 105.965 48.7165 106.08 48.7165H107.227C107.342 48.7165 107.438 48.8126 107.438 48.9279V49.3954C107.778 48.9919 108.45 48.6396 109.212 48.6396C109.814 48.6396 110.231 48.8062 110.66 49.1649C110.762 49.2545 110.775 49.4083 110.679 49.5043L109.84 50.3882H109.834Z" fill="#003863"/>
<path d="M138.4 55.3713V51.3874C138.4 49.6196 137.337 48.6396 135.486 48.6396C134.403 48.6396 133.462 48.8894 132.764 49.357C132.719 49.3954 132.7 49.4403 132.77 49.5556L133.327 50.4779C133.359 50.5227 133.391 50.5484 133.436 50.5612C133.481 50.5676 133.526 50.5612 133.571 50.5291C134.058 50.2473 134.711 50.0872 135.371 50.0872C136.395 50.0872 136.793 50.4779 136.793 51.4899V51.6884H136.761C136.197 51.6116 135.742 51.5732 135.371 51.5732C133.443 51.5732 132.45 52.361 132.45 53.7317C132.45 55.7685 134.5 55.9862 135.422 55.9862C136.344 55.9862 137.407 55.8325 138.259 55.5763C138.343 55.5379 138.394 55.4674 138.394 55.3713H138.4ZM136.793 54.3145C136.793 54.3658 136.761 54.4106 136.709 54.417C136.549 54.449 135.986 54.5643 135.428 54.5643C134.474 54.5643 134.032 54.3145 134.032 53.7188C134.032 53.1232 134.423 52.7901 135.415 52.7901C135.768 52.7901 136.248 52.8285 136.709 52.8926C136.761 52.899 136.799 52.9438 136.799 52.9951V54.3081L136.793 54.3145Z" fill="#003863"/>
<path d="M116.969 51.823C116.969 50.7725 116.719 49.9527 116.22 49.4275C115.726 48.9023 114.977 48.6396 114.01 48.6396C112.959 48.6396 112.172 48.9599 111.678 49.5876C111.179 50.2217 110.929 51.2145 110.929 52.5083C110.929 53.8021 111.172 54.622 111.646 55.1664C112.12 55.7108 112.902 55.9862 113.971 55.9862C114.753 55.9862 115.649 55.8645 116.629 55.6275C116.7 55.6083 116.745 55.5507 116.745 55.4802L116.726 54.5387C116.726 54.5067 116.713 54.4746 116.687 54.449C116.661 54.4298 116.629 54.417 116.597 54.417C116.232 54.449 115.733 54.4874 115.451 54.5003C115.265 54.5067 115.086 54.5195 114.913 54.5323C114.682 54.5515 114.471 54.5643 114.292 54.5643C113.894 54.5643 113.581 54.5259 113.356 54.4554C113.126 54.3786 112.953 54.2441 112.85 54.0583C112.748 53.8726 112.729 53.5843 112.729 53.373C112.729 53.1488 112.754 53.0847 112.857 53.0847H116.681C116.822 53.0847 116.937 52.9759 116.943 52.8285L116.982 51.8165L116.969 51.823ZM115.182 51.7077C115.182 51.7077 115.111 51.7525 115.073 51.7525H112.838C112.799 51.7525 112.761 51.7333 112.735 51.7077C112.71 51.6756 112.69 51.6372 112.69 51.5988C112.71 51.0864 112.812 50.6957 112.998 50.4651C113.196 50.2217 113.529 50.0936 113.997 50.0936C114.465 50.0936 114.778 50.2153 114.958 50.4523C115.131 50.6764 115.22 51.0608 115.227 51.5924C115.227 51.6372 115.214 51.6756 115.182 51.7077Z" fill="#003863"/>
<path d="M153.926 51.6373C153.926 50.7022 153.567 49.8695 152.946 49.3699C152.837 49.2802 152.716 49.2034 152.594 49.1265C152.511 49.0817 152.421 49.0368 152.331 48.992C152.242 48.9472 152.145 48.9152 152.049 48.8831C151.659 48.755 151.223 48.6846 150.743 48.6846H143.845C142.07 48.6846 140.623 49.5621 140.623 51.7526V53.0208C140.623 54.9935 141.993 55.9159 143.646 55.9159C144.152 55.9159 144.754 55.8006 145.202 55.6084C145.247 57.0175 144.632 57.5491 143.582 57.5491C142.852 57.5491 142.282 57.3506 141.763 56.9727C141.654 56.8894 141.552 56.915 141.487 57.0303L140.93 57.8886C140.86 58.0167 140.86 58.1 140.969 58.1704C141.712 58.7469 142.557 59.0351 143.704 59.0351C145.696 59.0351 146.746 57.7989 146.746 55.7301V50.209H150.922C151.704 50.209 152.338 50.8431 152.338 51.6245V53.3602C152.338 53.9303 152.03 54.4747 151.511 54.7053C150.48 55.1729 149.385 54.3594 149.359 53.3538C149.359 53.3538 149.359 51.791 149.359 51.285C149.359 51.2018 149.218 51.1697 149.148 51.2082C148.764 51.4067 148.065 51.7718 147.841 51.8871C147.803 51.9063 147.777 51.9511 147.777 51.996V53.4627C147.777 54.795 148.744 55.9031 150.096 56.1913C150.333 56.2361 150.659 56.2617 150.929 56.2617C152.498 56.2361 153.772 55.128 153.913 53.7189C153.92 53.6293 153.926 53.5396 153.926 53.4499C153.926 53.4435 153.926 51.6373 153.926 51.6373ZM145.138 54.1417C144.869 54.3658 144.28 54.4811 143.748 54.4811C142.897 54.4811 142.211 54.1289 142.211 53.0272V51.6437C142.211 50.4395 142.871 50.1065 143.838 50.1065C144.261 50.1065 144.85 50.1641 145.145 50.2602V54.1417H145.138Z" fill="white"/>
<path d="M80.8572 9.21021C86.9036 9.17819 91.2462 12.1757 91.291 19.2469L91.3231 24.3645C91.3615 30.6415 87.1918 34.2475 81.1903 34.286C79.051 34.2988 77.0014 33.7543 75.4129 32.8768L75.4642 45.2194C75.4642 45.546 75.2784 45.7318 74.9069 45.7318L72.1656 45.7446C71.8389 45.7446 71.6532 45.5588 71.6532 45.2386L71.4802 11.5481C71.4802 11.2662 71.5699 11.0357 71.8517 10.9396C74.497 9.90196 77.8917 9.22943 80.87 9.21662L80.8572 9.21021ZM87.4544 24.3838L87.4224 19.2661C87.3968 14.3791 84.918 12.5344 80.7804 12.5601C78.782 12.5729 76.7324 12.9059 75.2976 13.5208L75.3873 29.2452C76.8797 30.2572 78.7948 30.8977 80.9341 30.8913C85.123 30.8657 87.48 28.8993 87.4544 24.3902V24.3838Z" fill="#003863"/>
<path d="M104.46 33.7738C99.9954 33.7738 97.4333 30.7954 97.4333 25.2167V0.512403C97.4333 0.185746 97.6191 0 97.9906 0H100.732C101.059 0 101.244 0.185746 101.244 0.512403V25.2615C101.244 28.8931 102.5 30.283 104.876 30.283C105.433 30.283 106.227 30.2382 106.97 30.1421C107.342 30.1421 107.528 30.3279 107.528 30.6545V33.0244C107.528 33.3511 107.342 33.5816 107.06 33.6265C106.272 33.7225 105.292 33.7674 104.453 33.7674L104.46 33.7738Z" fill="#003863"/>
<path d="M131.547 9.21045C131.873 9.21045 132.059 9.44103 132.059 9.76769V31.3078C132.059 31.5897 131.963 31.8651 131.688 31.9612C129.081 33.1269 126.058 33.7738 122.894 33.7738C116.802 33.7738 112.614 30.8403 112.614 23.7243V9.76769C112.614 9.44103 112.799 9.21045 113.171 9.21045H115.912C116.239 9.21045 116.425 9.44103 116.425 9.76769V23.6282C116.425 28.5152 118.846 30.3727 122.894 30.3727C124.847 30.3727 126.801 30.0012 128.242 29.4888V9.76769C128.242 9.44103 128.428 9.21045 128.799 9.21045H131.547Z" fill="#003863"/>
<path d="M146.842 33.774C143.633 33.774 140.424 32.8452 137.631 30.7956C137.35 30.6099 137.35 30.3281 137.491 30.0526L138.746 27.9134C138.932 27.5867 139.162 27.5419 139.489 27.7725C141.724 29.4442 144.28 30.3793 146.932 30.3793C150.051 30.3793 152.421 29.0791 152.421 26.658C152.421 24.0511 149.538 23.4491 146.932 22.9367C143.582 22.2385 137.862 20.9383 137.862 15.5388C137.862 10.7927 142.378 8.69824 147.028 8.69824C149.961 8.69824 152.562 9.44123 155.124 10.8824C155.45 11.0233 155.495 11.2987 155.309 11.5805L154.054 13.675C153.913 13.9568 153.638 14.0465 153.356 13.8607C151.447 12.8359 149.167 12.1378 146.842 12.1378C143.588 12.1378 141.635 13.438 141.635 15.5324C141.635 18.088 144.382 18.7862 147.681 19.4395C151.402 20.1825 156.289 21.2521 156.289 26.4658C156.289 31.212 152.286 33.7676 146.848 33.7676L146.842 33.774Z" fill="#003863"/>
<path d="M47.1731 20.5602C47.1731 17.2424 45.9114 14.2897 43.7016 12.5155C43.3109 12.2016 42.8946 11.9198 42.4462 11.6572C42.1516 11.4907 41.8377 11.3305 41.5175 11.1896C41.1972 11.0359 40.8642 10.9142 40.5183 10.7925C39.1476 10.3313 37.5784 10.0815 35.8746 10.0815H11.4202C5.13684 10.0879 0 13.1944 0 20.9573V25.4472C0 32.4351 4.86783 35.7017 10.722 35.7017C12.509 35.7017 14.6547 35.2982 16.2368 34.6129C16.3905 39.6088 14.2128 41.4983 10.5043 41.4983C7.91663 41.4983 5.89904 40.7873 4.05439 39.4423C3.67009 39.1476 3.31141 39.2437 3.06802 39.6408L1.08886 42.6768C0.845466 43.1252 0.845466 43.4262 1.22977 43.6696C3.86865 45.7 6.84699 46.744 10.9142 46.744C17.979 46.744 21.6875 42.363 21.6875 35.042V15.4746H36.4895C39.2629 15.4746 41.5175 17.7228 41.5175 20.5025V26.645C41.5175 28.6626 40.4158 30.5841 38.584 31.4231C34.9331 33.0821 31.0516 30.2062 30.9684 26.6386C30.9684 26.6386 30.9556 21.0918 30.9748 19.2984C30.9748 19.0102 30.4752 18.8885 30.219 19.023C28.8483 19.7147 26.3888 21.0278 25.5946 21.4249C25.4472 21.4953 25.3576 21.6426 25.3576 21.8092V27.0101C25.3576 31.7242 28.7843 35.6633 33.5816 36.6881C34.4271 36.8482 35.5864 36.9379 36.528 36.9507C42.0811 36.8546 46.6095 32.9411 47.1155 27.9452C47.1411 27.6314 47.1667 27.3111 47.1667 26.9845C47.1667 26.9588 47.1667 20.5602 47.1667 20.5602H47.1731ZM16.0382 29.444C15.0967 30.2318 13.0022 30.6353 11.1128 30.6353C8.08957 30.6353 5.65565 29.3927 5.65565 25.4857V20.5922C5.65565 16.3329 7.99349 15.1479 11.4138 15.1479C12.9062 15.1479 14.9942 15.3401 16.0382 15.6924V29.444Z" fill="#003863"/>
<g style="mix-blend-mode:overlay">
<path d="M48.0376 24.3389C48.0376 16.9346 54.0391 10.9331 61.4434 10.9331C68.8476 10.9331 74.8491 16.9346 74.8491 24.3389C74.8491 31.7431 68.8476 37.7446 61.4434 37.7446C54.0391 37.7446 48.0376 31.7431 48.0376 24.3389Z" fill="#B6E4FA"/>
</g>
<g style="mix-blend-mode:overlay">
<path d="M42.4653 25.0561C42.4653 17.6519 48.4669 11.6504 55.8711 11.6504C63.2753 11.6504 69.2768 17.6519 69.2768 25.0561C69.2768 32.4604 63.2753 38.4619 55.8711 38.4619C48.4669 38.4619 42.4653 32.4604 42.4653 25.0561Z" fill="#B6E4FA"/>
</g>
<g style="mix-blend-mode:overlay">
<path d="M43.1636 20.9443C43.1636 13.5401 49.1651 7.53857 56.5693 7.53857C63.9736 7.53857 69.9751 13.5401 69.9751 20.9443C69.9751 28.3486 63.9736 34.3501 56.5693 34.3501C49.1651 34.3501 43.1636 28.3486 43.1636 20.9443Z" fill="#B6E4FA"/>
</g>
<path d="M44.6431 23.0771C44.6431 15.6729 50.6446 9.67139 58.0488 9.67139C65.4531 9.67139 71.4546 15.6729 71.4546 23.0771C71.4546 30.4814 65.4531 36.4829 58.0488 36.4829C50.6446 36.4829 44.6431 30.4814 44.6431 23.0771Z" fill="#20C4F4"/>
<path d="M65.53 20.323C65.9463 20.323 66.1705 20.5472 66.1705 20.9636V25.1845C66.1705 25.6008 65.9463 25.825 65.53 25.825H60.8607V30.5583C60.8607 30.9746 60.6365 31.1988 60.2202 31.1988H55.8712C55.4549 31.1988 55.2307 30.9746 55.2307 30.5583V25.825H50.5614C50.1451 25.825 49.9209 25.6008 49.9209 25.1845V20.9636C49.9209 20.5472 50.1451 20.323 50.5614 20.323H55.2307V15.5897C55.2307 15.1734 55.4549 14.9492 55.8712 14.9492H60.2202C60.6365 14.9492 60.8607 15.1734 60.8607 15.5897V20.323H65.53Z" fill="white"/>
</g>
<defs>
<clipPath id="clip0_71_78">
<rect width="156.911" height="63" fill="white"/>
</clipPath>
</defs>
</svg>
