<svg width="209" height="38" viewBox="0 0 209 38" fill="none" xmlns="http://www.w3.org/2000/svg">
<path d="M46.9909 10.964C50.5015 10.9458 53.0284 12.7062 53.0554 16.8565L53.0735 19.8665C53.0915 23.5516 50.673 25.6769 47.1895 25.6952C45.9441 25.6952 44.7528 25.385 43.8323 24.8651L43.8594 32.1167C43.8594 32.3082 43.7511 32.4177 43.5345 32.4177H41.9372C41.7477 32.4268 41.6394 32.3173 41.6394 32.1258L41.5401 12.3322C41.5401 12.168 41.5942 12.0312 41.7567 11.9765C43.2909 11.3653 45.2672 10.9731 47 10.964H46.9909ZM50.8264 19.8757L50.8083 16.8656C50.7903 13.9923 49.3554 12.916 46.9458 12.9251C45.7816 12.9251 44.5904 13.1258 43.7601 13.4906L43.8143 22.7307C44.6806 23.3236 45.7907 23.7067 47.0361 23.6976C49.4727 23.6793 50.8444 22.53 50.8264 19.8757Z" fill="white"/>
<path d="M60.7083 25.3941C58.1092 25.3941 56.6292 23.6428 56.6292 20.3682V5.85598C56.6292 5.66443 56.7375 5.55497 56.9541 5.55497H58.5514C58.7409 5.55497 58.8492 5.66443 58.8492 5.85598V20.3956C58.8492 22.53 59.5802 23.3509 60.961 23.3509C61.2859 23.3509 61.7461 23.3236 62.1793 23.2688C62.3959 23.2688 62.5042 23.3783 62.5042 23.5699V24.9654C62.5042 25.157 62.3959 25.2938 62.2334 25.3212C61.7732 25.3759 61.2046 25.4033 60.7173 25.4033L60.7083 25.3941Z" fill="white"/>
<path d="M76.4471 10.964C76.6366 10.964 76.7449 11.1008 76.7449 11.2924V23.9438C76.7449 24.108 76.6908 24.2722 76.5284 24.3269C75.0122 25.011 73.2615 25.3941 71.4204 25.3941C67.8828 25.3941 65.4462 23.6702 65.4462 19.4926V11.2924C65.4462 11.1008 65.5545 10.964 65.7711 10.964H67.3684C67.5579 10.964 67.6662 11.1008 67.6662 11.2924V19.4378C67.6662 22.3111 69.0741 23.3965 71.4204 23.3965C72.5575 23.3965 73.6946 23.1776 74.5339 22.8766V11.2924C74.5339 11.1008 74.6422 10.964 74.8588 10.964H76.4562H76.4471Z" fill="white"/>
<path d="M85.3453 25.3941C83.4773 25.3941 81.6182 24.8469 79.9938 23.6428C79.8313 23.5334 79.8313 23.3692 79.9126 23.205L80.6435 21.9462C80.7518 21.7547 80.8872 21.7273 81.0767 21.8641C82.3763 22.8493 83.8653 23.3965 85.3995 23.3965C87.2134 23.3965 88.5942 22.6303 88.5942 21.2074C88.5942 19.675 86.9156 19.3193 85.3995 19.0182C83.4502 18.6078 80.1291 17.8416 80.1291 14.6764C80.1291 11.8853 82.7553 10.663 85.4536 10.663C87.1593 10.663 88.6754 11.1008 90.1554 11.9491C90.345 12.0312 90.372 12.1954 90.2637 12.3596L89.5328 13.591C89.4515 13.7552 89.2891 13.8099 89.1266 13.7004C88.0166 13.0984 86.69 12.688 85.3453 12.688C83.4502 12.688 82.3131 13.4542 82.3131 14.6856C82.3131 16.1906 83.9104 16.6011 85.8237 16.9842C87.9895 17.422 90.8233 18.0514 90.8233 21.1071C90.8233 23.8982 88.4949 25.3941 85.3363 25.3941H85.3453Z" fill="white"/>
<path d="M27.4166 17.6318C27.4166 15.6798 26.6857 13.9467 25.4042 12.9069C25.1785 12.7244 24.9349 12.5603 24.6732 12.4052C24.5017 12.3049 24.3212 12.2136 24.1317 12.1315C23.9422 12.0403 23.7527 11.9674 23.5451 11.9035C22.7509 11.6299 21.8395 11.4839 20.8468 11.4839H6.63306C2.98713 11.4839 0 13.3173 0 17.8689V20.505C0 24.6097 2.83371 26.5252 6.22695 26.5252C7.26478 26.5252 8.51017 26.288 9.43067 25.8867C9.52092 28.8238 8.25748 29.9275 6.10061 29.9275C4.59351 29.9275 3.42031 29.5079 2.35541 28.7235C2.1298 28.5502 1.92223 28.6049 1.78686 28.8421L0.640744 30.6207C0.496351 30.8853 0.496351 31.0586 0.721966 31.2045C2.25614 32.3994 3.98886 33.0106 6.3533 33.0106C10.4595 33.0106 12.6163 30.4383 12.6163 26.133V14.6491H21.2168C22.8322 14.6491 24.1407 15.9717 24.1407 17.6044V21.2074C24.1407 22.3932 23.5 23.5242 22.4351 24.0168C20.3143 24.9928 18.0582 23.3053 18.013 21.2074C18.013 21.2074 18.013 17.951 18.013 16.8929C18.013 16.7288 17.7243 16.6558 17.5799 16.7288C16.7857 17.1392 15.3508 17.9054 14.8905 18.1426C14.8093 18.1882 14.7552 18.2703 14.7552 18.3706V21.4263C14.7552 24.1992 16.7496 26.507 19.5382 27.109C20.0255 27.2002 20.7024 27.2549 21.2529 27.264C24.4746 27.2093 27.1098 24.9107 27.4076 21.9736C27.4257 21.7912 27.4347 21.5996 27.4347 21.4081C27.4347 21.3898 27.4347 17.6318 27.4347 17.6318H27.4166ZM9.32238 22.8493C8.77188 23.3145 7.55356 23.5516 6.46159 23.5516C4.7018 23.5516 3.29397 22.8219 3.29397 20.5233V17.65C3.29397 15.1507 4.65668 14.4575 6.64208 14.4575C7.50844 14.4575 8.71773 14.567 9.3314 14.7768V22.8493H9.32238Z" fill="white"/>
<g style="mix-blend-mode:overlay">
<path d="M27.922 19.8483C27.922 15.4974 31.4145 11.9765 35.7102 11.9765C40.0149 11.9765 43.4984 15.5065 43.4984 19.8483C43.4984 24.1992 40.0059 27.7201 35.7102 27.7201C31.4055 27.7201 27.922 24.1901 27.922 19.8483Z" fill="#B6E4FA"/>
</g>
<g style="mix-blend-mode:overlay">
<path d="M24.6822 20.2679C24.6822 15.9169 28.1747 12.3961 32.4704 12.3961C36.7751 12.3961 40.2586 15.9261 40.2586 20.2679C40.2586 24.6188 36.7661 28.1397 32.4704 28.1397C28.1657 28.1397 24.6822 24.6097 24.6822 20.2679Z" fill="#B6E4FA"/>
</g>
<g style="mix-blend-mode:overlay">
<path d="M25.0883 17.8598C25.0883 13.5089 28.5808 9.988 32.8765 9.988C37.1812 9.988 40.6647 13.518 40.6647 17.8598C40.6647 22.2108 37.1722 25.7316 32.8765 25.7316C28.5718 25.7316 25.0883 22.2016 25.0883 17.8598Z" fill="#B6E4FA"/>
</g>
<path d="M25.9456 19.1095C25.9456 14.7585 29.4381 11.2376 33.7338 11.2376C38.0386 11.2376 41.522 14.7676 41.522 19.1095C41.522 23.4604 38.0295 26.9813 33.7338 26.9813C29.4291 26.9813 25.9456 23.4513 25.9456 19.1095Z" fill="#20C4F4"/>
<path d="M38.0837 17.495C38.3273 17.495 38.4537 17.6227 38.4537 17.8689V20.35C38.4537 20.5963 38.3273 20.724 38.0837 20.724H35.3673V23.506C35.3673 23.7523 35.2409 23.88 34.9973 23.88H32.4704C32.2267 23.88 32.1004 23.7523 32.1004 23.506V20.724H29.384C29.1403 20.724 29.014 20.5963 29.014 20.35V17.8689C29.014 17.6227 29.1403 17.495 29.384 17.495H32.1004V14.7129C32.1004 14.4666 32.2267 14.3389 32.4704 14.3389H34.9973C35.2409 14.3389 35.3673 14.4666 35.3673 14.7129V17.495H38.0837Z" fill="white"/>
<path d="M192.422 3.50264C185.942 3.50264 180.338 7.26068 177.613 12.7336C179.345 13.7187 180.338 15.5156 180.338 17.9054V24.4638C180.338 25.23 179.905 25.8958 179.201 26.1877L179.129 26.2151L179.056 26.2333C178.452 26.4157 177.793 26.5708 177.107 26.6894C179.607 32.746 185.518 37.0058 192.413 37.0058C201.564 37.0058 208.982 29.5079 208.982 20.2588C208.982 11.0096 201.564 3.51176 192.413 3.51176L192.422 3.50264Z" fill="#20C4F4"/>
<path d="M124.485 23.3509L123.564 21.8641C123.501 21.7456 123.429 21.6726 123.33 21.6543C123.24 21.6361 123.14 21.6635 123.041 21.7547C122.175 22.457 121.11 22.7945 119.973 22.7945C118.105 22.7945 117.04 21.6726 117.04 19.7297V14.8224C117.04 12.916 118.132 11.7758 119.955 11.7758C120.992 11.7758 122.012 12.1224 122.833 12.7518C122.96 12.8339 123.068 12.8521 123.158 12.8248C123.24 12.7974 123.312 12.7336 123.357 12.6332L124.277 11.1373C124.395 10.9184 124.368 10.7177 124.196 10.5809C122.987 9.63226 121.444 9.0941 119.946 9.0941C117.428 9.0941 114.423 10.5353 114.423 14.7403V19.7388C114.423 23.9256 117.328 25.4671 119.982 25.4671C121.723 25.4671 123.212 24.9746 124.413 23.9256C124.521 23.8161 124.62 23.6337 124.467 23.3509H124.485Z" fill="white"/>
<path d="M150.81 23.1138C151.459 23.1138 152.145 23.0317 152.678 22.8766C152.84 22.831 152.948 22.6851 152.948 22.5118V16.6649C152.948 16.4734 152.84 16.2909 152.669 16.1997C152.154 15.9261 151.513 15.771 150.764 15.771C149.131 15.771 148.201 16.5372 148.201 18.2885V20.4047C148.201 22.3932 149.176 23.1047 150.81 23.1047V23.1138ZM152.948 9.65962C152.948 9.46807 153.102 9.38598 153.291 9.38598H155.214C155.403 9.38598 155.557 9.43159 155.557 9.69611V24.3908C155.557 24.3908 155.557 24.4546 155.511 24.5185C155.466 24.5732 155.394 24.6097 155.313 24.6371C153.95 25.1479 152.235 25.4671 150.755 25.4671C147.759 25.4671 145.611 23.8982 145.611 20.3865V18.2885C145.611 15.2876 147.642 13.3994 150.503 13.3994C151.414 13.3994 152.272 13.6092 152.957 13.9102V9.66875L152.948 9.65962Z" fill="white"/>
<path d="M162.713 9.3951H158.02C157.885 9.3951 157.731 9.45895 157.731 9.67787V25.0566C157.731 25.1205 157.786 25.1844 157.858 25.1844H160.177C160.267 25.1844 160.331 25.1114 160.331 25.0293V20.952C160.331 20.8152 160.439 20.7148 160.565 20.7148H162.587C164.364 20.7148 165.727 20.1858 166.639 19.2372C167.55 18.2885 168.236 17.048 168.236 14.9683C168.236 13.3994 167.839 12.1407 167.252 11.2924C166.386 10.0427 165.276 9.40423 162.713 9.40423V9.3951ZM162.857 18.1699H160.565C160.43 18.1699 160.331 18.0605 160.331 17.9328V12.1771C160.331 12.0403 160.439 11.94 160.565 11.94H162.984C163.832 11.94 164.455 12.168 164.843 12.615C165.231 13.0619 165.52 13.6275 165.52 14.5943C165.52 15.7163 165.33 16.4369 164.861 17.0845C164.491 17.6044 163.733 18.1699 162.857 18.1699Z" fill="white"/>
<path d="M132.399 16.2544C132.282 16.373 132.093 16.3821 131.966 16.2727C131.605 15.9626 131.001 15.7801 130.414 15.7801C129.53 15.7801 128.564 16.446 128.564 17.9145V24.8377C128.564 25.0293 128.411 25.1844 128.221 25.1844H126.29C126.1 25.1844 125.947 25.0293 125.947 24.8377V13.8646C125.947 13.6731 126.1 13.518 126.29 13.518H128.158C128.347 13.518 128.501 13.6731 128.501 13.8646V14.6308C129.051 13.965 130.152 13.3812 131.38 13.3812C132.363 13.3812 133.04 13.6548 133.735 14.2477C133.907 14.3937 133.916 14.6491 133.762 14.8041L132.39 16.2544H132.399Z" fill="white"/>
<path d="M178.876 24.4546V17.8963C178.876 14.9866 177.152 13.3812 174.129 13.3812C172.369 13.3812 170.844 13.7916 169.698 14.567C169.626 14.6308 169.59 14.7038 169.707 14.8862L170.619 16.4004C170.664 16.4734 170.727 16.519 170.799 16.5372C170.871 16.5554 170.943 16.5372 171.016 16.4825C171.801 16.0173 172.875 15.7528 173.949 15.7528C175.618 15.7528 176.268 16.4004 176.268 18.0605V18.3889H176.223C175.302 18.2612 174.562 18.2064 173.958 18.2064C170.826 18.2064 169.211 19.5017 169.211 21.7547C169.211 25.1023 172.541 25.458 174.048 25.458C175.555 25.458 177.279 25.2026 178.668 24.783C178.813 24.7283 178.885 24.6006 178.885 24.4455L178.876 24.4546ZM176.268 22.7124C176.268 22.7945 176.214 22.8675 176.133 22.8857C175.871 22.9405 174.959 23.132 174.048 23.132C172.487 23.132 171.783 22.7216 171.783 21.7364C171.783 20.7513 172.414 20.2132 174.03 20.2132C174.607 20.2132 175.393 20.277 176.133 20.3773C176.214 20.3865 176.277 20.4594 176.277 20.5506V22.7124H176.268Z" fill="white"/>
<path d="M144.005 18.6169C144.005 16.8929 143.599 15.543 142.787 14.6855C141.984 13.8281 140.765 13.3903 139.186 13.3903C137.471 13.3903 136.199 13.9102 135.387 14.9501C134.574 15.9899 134.159 17.6318 134.159 19.748C134.159 21.8641 134.547 23.2232 135.323 24.1263C136.091 25.0202 137.363 25.4762 139.114 25.4762C140.386 25.4762 141.839 25.2756 143.437 24.8925C143.545 24.8651 143.626 24.7648 143.626 24.6462L143.59 23.0955C143.59 23.0408 143.563 22.9861 143.527 22.9496C143.491 22.9131 143.437 22.8949 143.382 22.904C142.787 22.9587 141.975 23.0226 141.514 23.0408C141.216 23.0499 140.919 23.0773 140.639 23.0955C140.269 23.1229 139.917 23.1503 139.628 23.1503C138.978 23.1503 138.473 23.0864 138.103 22.9678C137.724 22.8401 137.444 22.6212 137.273 22.3111C137.101 22.001 137.074 21.5266 137.074 21.1891C137.074 20.8243 137.119 20.7148 137.291 20.7148H143.509C143.734 20.7148 143.924 20.5324 143.933 20.2952L143.996 18.626L144.005 18.6169ZM141.099 18.4253C141.054 18.471 140.991 18.4983 140.919 18.4983H137.282C137.219 18.4983 137.155 18.471 137.11 18.4253C137.065 18.3797 137.038 18.3068 137.038 18.2429C137.065 17.4037 137.237 16.7561 137.534 16.3821C137.859 15.9808 138.401 15.771 139.159 15.771C139.917 15.771 140.422 15.9717 140.729 16.3548C141.009 16.7196 141.153 17.3581 141.171 18.2338C141.171 18.3068 141.144 18.3706 141.099 18.4162V18.4253Z" fill="white"/>
<path d="M204.136 18.3068C204.136 16.7652 203.558 15.397 202.538 14.5761C202.358 14.4301 202.168 14.3024 201.961 14.1747C201.825 14.0927 201.681 14.0197 201.537 13.9558C201.392 13.8829 201.239 13.8281 201.076 13.7734C200.445 13.5636 199.723 13.445 198.947 13.445H187.72C184.832 13.445 182.477 14.8862 182.477 18.4892V20.5689C182.477 23.807 184.715 25.3303 187.395 25.3303C188.216 25.3303 189.2 25.1387 189.922 24.8195C189.994 27.1363 188.993 28.012 187.287 28.012C186.096 28.012 185.175 27.6836 184.327 27.0634C184.146 26.9265 183.984 26.9722 183.876 27.1546L182.964 28.5593C182.856 28.7691 182.856 28.9059 183.027 29.0154C184.237 29.9549 185.608 30.4383 187.476 30.4383C190.725 30.4383 192.422 28.4042 192.422 25.011V15.9352H199.217C200.49 15.9352 201.528 16.975 201.528 18.2703V21.1162C201.528 22.0557 201.022 22.9496 200.183 23.3327C198.504 24.0989 196.727 22.7672 196.69 21.1162C196.69 21.1162 196.69 18.5439 196.69 17.7048C196.69 17.5679 196.465 17.5132 196.348 17.5771C195.716 17.8963 194.588 18.5074 194.227 18.6899C194.164 18.7264 194.118 18.7902 194.118 18.8723V21.2895C194.118 23.4786 195.689 25.3029 197.891 25.7772C198.279 25.8502 198.811 25.8958 199.244 25.8958C201.789 25.8502 203.874 24.035 204.109 21.7182C204.118 21.5723 204.136 21.4263 204.136 21.2712C204.136 21.2621 204.136 18.2885 204.136 18.2885V18.3068ZM189.841 22.4297C189.408 22.7945 188.442 22.9861 187.576 22.9861C186.186 22.9861 185.067 22.4114 185.067 20.5963V18.325C185.067 16.3457 186.141 15.7984 187.711 15.7984C188.397 15.7984 189.354 15.8896 189.832 16.0538V22.4297H189.841Z" fill="white"/>
<path d="M102.636 0H102.149V38H102.636V0Z" fill="white"/>
</svg>
