<svg width="325" height="120" viewBox="0 0 325 120" fill="none" xmlns="http://www.w3.org/2000/svg">
<path d="M0.815022 48.8534C0.287655 48.8534 0 48.5657 0 48.0863V0.76708C0 0.287655 0.287655 0 0.815022 0H5.99281C6.32841 0 6.66401 0.143827 6.90372 0.527367L17.499 19.8002C19.2249 22.9645 21.718 27.9984 22.9645 30.5873H23.1562C24.4027 27.9984 26.8957 22.9165 28.6217 19.8482L39.2649 0.527367C39.4087 0.095885 39.7443 0 40.1758 0H45.3536C45.833 0 46.1207 0.287655 46.1207 0.76708V48.0863C46.1207 48.5657 45.833 48.8534 45.3536 48.8534H41.0388C40.5594 48.8534 40.2717 48.5657 40.2717 48.0863V27.471C40.2717 21.7179 40.4635 14.7663 40.7032 8.96525H40.5594C38.7375 12.6089 36.5801 16.636 34.3268 20.9029L25.7931 36.7719C25.6013 37.1075 25.2657 37.2993 24.8342 37.2993H21.2385C20.807 37.2993 20.4714 37.1075 20.3276 36.7719L11.7939 20.9029C9.44467 16.5881 7.3352 12.5609 5.56133 8.86936H5.4175C5.56133 14.7663 5.7531 21.7179 5.7531 27.471V48.0863C5.7531 48.5657 5.46544 48.8534 4.98602 48.8534H0.815022Z" fill="#003863"/>
<path d="M67.8868 12.753C76.2768 12.753 81.5025 17.2117 81.5025 25.9851V46.4566C81.5025 46.8881 81.3107 47.2237 80.8792 47.3675C77.6671 48.5181 72.8249 49.5729 67.6951 49.5729C60.0243 49.5729 53.0247 46.5045 53.0247 38.3543C53.0247 31.115 58.9695 27.4714 67.6951 27.4714C70.4757 27.4714 73.544 27.9028 75.8932 28.2864V26.081C75.8932 20.5676 73.6399 17.739 67.6951 17.739C63.8597 17.739 60.4078 18.8417 58.0107 20.28C57.5792 20.5676 57.2436 20.4718 57.0039 20.0882L55.0382 17.2117C54.8465 16.7802 54.7506 16.5405 55.0382 16.2528C58.2504 14.0475 62.709 12.7051 67.9348 12.7051L67.8868 12.753ZM67.6951 44.5868C70.7634 44.5868 73.8317 43.9636 75.8932 43.3403V33.0806C73.6879 32.6492 70.4757 32.2656 67.6951 32.2656C61.4625 32.2656 58.586 34.6148 58.586 38.3543C58.586 42.4774 62.4214 44.5868 67.6951 44.5868Z" fill="#003863"/>
<path d="M102.981 12.7528C107.343 12.7528 112.281 13.7117 116.165 15.1979C116.644 15.3417 116.788 15.6773 116.788 16.1088V61.0788C116.788 61.5583 116.5 61.8459 116.021 61.8459H111.994C111.466 61.8459 111.179 61.5583 111.179 61.0788V47.4632C108.782 48.7576 105.857 49.5726 102.693 49.5726C93.8715 49.5726 87.7349 44.299 87.7349 35.094V27.567C87.7349 17.1635 94.0633 12.7528 102.981 12.7528ZM103.029 44.5866C106.193 44.5866 108.973 43.6278 111.179 42.1416V18.9853C109.069 18.1703 106.049 17.6909 103.124 17.6909C97.0357 17.6909 93.44 20.4236 93.44 27.615V35.142C93.44 41.758 96.9398 44.6346 103.076 44.6346L103.029 44.5866Z" fill="#003863"/>
<path d="M152.265 13.5197C152.744 13.5197 153.032 13.8553 153.032 14.3347V45.9767C153.032 46.4082 152.888 46.7917 152.505 46.9356C148.669 48.6615 144.258 49.6204 139.608 49.6204C130.643 49.6204 124.506 45.3055 124.506 34.8541V14.3347C124.506 13.8553 124.794 13.5197 125.321 13.5197H129.348C129.828 13.5197 130.115 13.8553 130.115 14.3347V34.7102C130.115 41.9016 133.663 44.6343 139.608 44.6343C142.485 44.6343 145.361 44.107 147.471 43.3399V14.3347C147.471 13.8553 147.758 13.5197 148.286 13.5197H152.313H152.265Z" fill="#003863"/>
<path d="M163.867 6.95182C161.95 6.95182 160.463 5.51354 160.463 3.59584C160.463 1.67814 161.95 0.239868 163.867 0.239868C165.785 0.239868 167.223 1.6302 167.223 3.59584C167.223 5.56149 165.785 6.95182 163.867 6.95182ZM161.806 48.8056C161.278 48.8056 160.991 48.518 160.991 48.0385V14.335C160.991 13.8555 161.278 13.5199 161.806 13.5199H165.833C166.312 13.5199 166.6 13.8555 166.6 14.335V48.0865C166.6 48.5659 166.312 48.8536 165.833 48.8536H161.806V48.8056Z" fill="#003863"/>
<path d="M175.373 48.8535C174.894 48.8535 174.606 48.5658 174.606 48.0864V16.3964C174.606 15.965 174.75 15.6294 175.134 15.4376C179.017 13.8075 183.524 12.7528 188.27 12.7528C197.427 12.7528 203.659 17.0676 203.659 27.5191V48.0864C203.659 48.5658 203.372 48.8535 202.844 48.8535H198.817C198.338 48.8535 198.05 48.5658 198.05 48.0864V27.6629C198.05 20.5674 194.454 17.8347 188.27 17.8347C185.393 17.8347 182.325 18.3621 180.215 19.0812V48.1344C180.215 48.6138 179.928 48.9014 179.4 48.9014H175.373V48.8535Z" fill="#003863"/>
<path d="M214.207 6.95182C212.289 6.95182 210.803 5.51354 210.803 3.59584C210.803 1.67814 212.289 0.239868 214.207 0.239868C216.125 0.239868 217.563 1.6302 217.563 3.59584C217.563 5.56149 216.125 6.95182 214.207 6.95182ZM212.145 48.8056C211.618 48.8056 211.33 48.518 211.33 48.0385V14.335C211.33 13.8555 211.618 13.5199 212.145 13.5199H216.173C216.652 13.5199 216.94 13.8555 216.94 14.335V48.0865C216.94 48.5659 216.652 48.8536 216.173 48.8536H212.145V48.8056Z" fill="#003863"/>
<path d="M225.665 48.8535C225.186 48.8535 224.898 48.5658 224.898 48.0864V16.3964C224.898 15.965 225.042 15.6294 225.425 15.4376C229.309 13.8075 233.815 12.7528 238.562 12.7528C247.719 12.7528 253.951 17.0676 253.951 27.5191V48.0864C253.951 48.5658 253.663 48.8535 253.136 48.8535H249.109C248.629 48.8535 248.342 48.5658 248.342 48.0864V27.6629C248.342 20.5674 244.698 17.8347 238.562 17.8347C235.685 17.8347 232.617 18.3621 230.507 19.0812V48.1344C230.507 48.6138 230.22 48.9014 229.692 48.9014H225.665V48.8535Z" fill="#003863"/>
<path d="M275.813 12.7527C284.299 12.7527 290.723 17.0675 290.723 27.6628V48.0863C290.723 48.5657 290.436 48.8534 289.908 48.8534H285.881C285.402 48.8534 285.114 48.5657 285.114 48.0863V27.8546C285.114 20.4714 281.614 17.8346 275.478 17.8346C272.457 17.8346 269.485 18.5058 267.279 19.6085V48.0863C267.279 48.5657 266.992 48.8534 266.464 48.8534H262.437C261.958 48.8534 261.67 48.5657 261.67 48.0863V0.76708C261.67 0.287655 261.958 0 262.437 0H266.464C266.992 0 267.279 0.287655 267.279 0.76708V14.4786C269.677 13.4718 272.553 12.7527 275.813 12.7527Z" fill="#003863"/>
<path d="M310.763 12.753C319.153 12.753 324.379 17.2117 324.379 25.9851V46.4566C324.379 46.8881 324.187 47.2237 323.755 47.3675C320.543 48.5181 315.701 49.5729 310.571 49.5729C302.9 49.5729 295.901 46.5045 295.901 38.3543C295.901 31.115 301.846 27.4714 310.571 27.4714C313.352 27.4714 316.468 27.9028 318.769 28.2864V26.081C318.769 20.5676 316.516 17.739 310.571 17.739C306.736 17.739 303.284 18.8417 300.887 20.28C300.455 20.5676 300.12 20.4718 299.88 20.0882L297.914 17.2117C297.723 16.7802 297.627 16.5405 297.914 16.2528C301.127 14.0475 305.585 12.7051 310.811 12.7051L310.763 12.753ZM310.571 44.5868C313.64 44.5868 316.708 43.9636 318.769 43.3403V33.0806C316.564 32.6492 313.352 32.2656 310.571 32.2656C304.339 32.2656 301.462 34.6148 301.462 38.3543C301.462 42.4774 305.298 44.5868 310.571 44.5868Z" fill="#003863"/>
<path d="M276.245 83.0842C269.053 83.0842 262.821 87.2073 259.752 93.248C261.67 94.3507 262.773 96.3164 262.773 98.9532V106.145C262.773 107.008 262.293 107.727 261.526 108.062H261.383C260.711 108.302 259.992 108.494 259.225 108.638C262.006 115.302 268.574 120 276.245 120C286.408 120 294.703 111.754 294.703 101.542C294.703 91.3303 286.456 83.0842 276.245 83.0842Z" fill="#41C0F0"/>
<path d="M200.639 104.898L199.632 103.268C199.632 103.268 199.489 103.076 199.393 103.029C199.297 103.029 199.201 103.029 199.057 103.124C198.098 103.891 196.9 104.275 195.653 104.275C193.592 104.275 192.393 103.029 192.393 100.919V95.5015C192.393 93.3921 193.592 92.1456 195.653 92.1456C196.804 92.1456 197.954 92.5291 198.865 93.2003C199.009 93.2962 199.105 93.2962 199.249 93.2962C199.345 93.2962 199.441 93.2003 199.489 93.1044L200.495 91.4744C200.495 91.4744 200.591 90.9949 200.4 90.8511C199.057 89.7964 197.331 89.2211 195.653 89.2211C192.873 89.2211 189.517 90.8032 189.517 95.4536V100.967C189.517 105.569 192.729 107.247 195.701 107.247C197.619 107.247 199.297 106.72 200.639 105.569C200.783 105.474 200.879 105.234 200.687 104.946L200.639 104.898Z" fill="#1E3559"/>
<path d="M229.932 104.658C230.651 104.658 231.419 104.562 231.994 104.419C232.186 104.371 232.281 104.227 232.281 104.035V97.6108C232.281 97.6108 232.138 97.1793 231.994 97.0834C231.419 96.7957 230.699 96.604 229.884 96.604C228.063 96.604 227.008 97.419 227.008 99.3846V101.734C227.008 103.939 228.11 104.706 229.932 104.706V104.658ZM232.329 89.892C232.329 89.892 232.521 89.6044 232.713 89.6044H234.87C234.87 89.6044 235.254 89.6044 235.254 89.94V106.097C235.254 106.097 235.254 106.192 235.206 106.24C235.158 106.288 235.062 106.336 234.966 106.384C233.432 106.96 231.562 107.295 229.884 107.295C226.528 107.295 224.179 105.569 224.179 101.686V99.3846C224.179 96.0766 226.433 94.0151 229.645 94.0151C230.651 94.0151 231.61 94.2548 232.377 94.5904V89.94L232.329 89.892Z" fill="#1E3559"/>
<path d="M243.164 89.5564H237.939C237.939 89.5564 237.603 89.6043 237.603 89.892V106.816C237.603 106.816 237.651 106.96 237.747 106.96H240.336C240.336 106.96 240.528 106.864 240.528 106.768V102.261C240.528 102.261 240.623 101.974 240.815 101.974H243.068C245.034 101.974 246.568 101.398 247.575 100.343C248.582 99.2887 249.349 97.9463 249.349 95.6451C249.349 93.9192 248.917 92.5288 248.246 91.6179C247.287 90.2276 246.041 89.5564 243.212 89.5564H243.164ZM243.308 99.1928H240.767C240.767 99.1928 240.48 99.0969 240.48 98.9052V92.5768C240.48 92.5768 240.575 92.2891 240.767 92.2891H243.452C244.411 92.2891 245.082 92.5288 245.514 93.0562C245.945 93.5356 246.281 94.1589 246.281 95.2136C246.281 96.4601 246.089 97.2272 245.561 97.9463C245.13 98.5216 244.315 99.1449 243.308 99.1449V99.1928Z" fill="#1E3559"/>
<path d="M209.46 97.0834C209.46 97.0834 209.125 97.2272 208.981 97.0834C208.597 96.7478 207.926 96.556 207.255 96.556C206.296 96.556 205.193 97.2752 205.193 98.9052V106.528C205.193 106.528 205.002 106.912 204.81 106.912H202.652C202.652 106.912 202.269 106.72 202.269 106.528V94.4466C202.269 94.4466 202.461 94.063 202.652 94.063H204.714C204.714 94.063 205.097 94.2548 205.097 94.4466V95.3095C205.721 94.5904 206.919 93.9192 208.31 93.9192C209.412 93.9192 210.179 94.2068 210.946 94.878C211.138 95.0219 211.138 95.3095 210.946 95.5013L209.412 97.0834H209.46Z" fill="#1E3559"/>
<path d="M261.19 106.145V98.9532C261.19 95.741 259.273 93.9672 255.917 93.9672C253.951 93.9672 252.273 94.3986 250.979 95.2616C250.883 95.3096 250.883 95.4054 250.979 95.5972L251.985 97.2752C251.985 97.2752 252.129 97.419 252.177 97.419C252.273 97.419 252.321 97.419 252.417 97.3711C253.28 96.8437 254.478 96.5561 255.677 96.5561C257.547 96.5561 258.266 97.2752 258.266 99.097V99.4805H258.218C257.211 99.3367 256.396 99.2888 255.677 99.2888C252.177 99.2888 250.403 100.727 250.403 103.172C250.403 106.864 254.095 107.247 255.773 107.247C257.451 107.247 259.369 106.96 260.903 106.528C261.047 106.48 261.142 106.336 261.142 106.145H261.19ZM258.266 104.227C258.266 104.227 258.218 104.419 258.122 104.419C257.834 104.467 256.828 104.706 255.821 104.706C254.095 104.706 253.28 104.275 253.28 103.172C253.28 102.069 253.999 101.494 255.773 101.494C256.396 101.494 257.307 101.542 258.122 101.686C258.218 101.686 258.266 101.782 258.266 101.878V104.275V104.227Z" fill="#1E3559"/>
<path d="M222.358 99.7203C222.358 97.8026 221.878 96.3163 221.015 95.4054C220.104 94.4466 218.762 93.9672 217.036 93.9672C215.118 93.9672 213.728 94.5425 212.817 95.6931C211.906 96.8437 211.475 98.6176 211.475 100.967C211.475 103.316 211.906 104.802 212.769 105.761C213.632 106.768 215.023 107.247 216.988 107.247C218.379 107.247 220.009 107.008 221.782 106.624C221.926 106.624 221.974 106.48 221.974 106.336V104.61C221.974 104.61 221.926 104.515 221.878 104.467C221.878 104.467 221.782 104.419 221.735 104.419C221.063 104.467 220.152 104.562 219.673 104.562C219.337 104.562 219.002 104.562 218.714 104.61C218.283 104.61 217.899 104.658 217.611 104.658C216.892 104.658 216.317 104.61 215.934 104.467C215.502 104.323 215.214 104.083 215.023 103.747C214.831 103.412 214.783 102.884 214.783 102.501C214.783 102.117 214.831 101.974 215.023 101.974H221.926C222.166 101.974 222.406 101.782 222.406 101.494V99.6723L222.358 99.7203ZM219.194 99.5285C219.194 99.5285 219.05 99.6244 219.002 99.6244H214.975C214.975 99.6244 214.831 99.6244 214.783 99.5285C214.735 99.4805 214.687 99.3847 214.687 99.3367C214.687 98.4258 214.927 97.7067 215.214 97.2752C215.55 96.8437 216.173 96.604 217.036 96.604C217.899 96.604 218.427 96.8437 218.762 97.2273C219.05 97.6108 219.242 98.3299 219.242 99.2888C219.242 99.3847 219.242 99.4326 219.146 99.4805L219.194 99.5285Z" fill="#1E3559"/>
<path d="M289.285 99.3848C289.285 97.7068 288.662 96.1727 287.512 95.2618C287.32 95.1179 287.08 94.9741 286.888 94.8303C286.745 94.7344 286.601 94.6864 286.409 94.5906C286.265 94.4947 286.073 94.4467 285.882 94.3988C285.162 94.1591 284.395 94.0153 283.532 94.0153H271.019C267.807 94.0153 265.17 95.5974 265.17 99.5766V101.878C265.17 105.426 267.663 107.104 270.636 107.104C271.547 107.104 272.649 106.912 273.464 106.528C273.56 109.069 272.41 110.028 270.54 110.028C269.198 110.028 268.191 109.645 267.232 108.973C267.04 108.829 266.848 108.877 266.705 109.069L265.698 110.603C265.698 110.603 265.554 110.987 265.794 111.131C267.136 112.185 268.67 112.713 270.732 112.713C274.327 112.713 276.245 110.46 276.245 106.72V96.748H283.82C285.258 96.748 286.409 97.8986 286.409 99.3369V102.453C286.409 103.46 285.834 104.467 284.923 104.898C283.053 105.761 281.087 104.275 281.039 102.453C281.039 102.453 281.039 99.6245 281.039 98.7136C281.039 98.5698 280.8 98.5218 280.656 98.5698C279.937 98.9054 278.69 99.5766 278.307 99.8163C278.211 99.8163 278.211 99.9122 278.211 100.008V102.645C278.211 105.042 279.985 107.056 282.43 107.583C282.861 107.679 283.437 107.727 283.916 107.727C286.745 107.679 289.046 105.665 289.333 103.124C289.333 102.981 289.333 102.789 289.333 102.645V99.3848H289.285ZM273.369 103.939C272.889 104.323 271.834 104.563 270.876 104.563C269.341 104.563 268.095 103.939 268.095 101.926V99.4328C268.095 97.2753 269.293 96.6521 271.019 96.6521C271.786 96.6521 272.841 96.748 273.369 96.9397V103.939Z" fill="white"/>
<path d="M100.439 90.132C104.994 90.132 108.254 92.3374 108.254 97.659V101.494C108.302 106.193 105.186 108.925 100.679 108.925C99.0489 108.925 97.5148 108.542 96.3162 107.871V117.124C96.3162 117.363 96.2203 117.507 95.9326 117.507H93.8711C93.6314 117.507 93.4876 117.363 93.4876 117.124L93.3438 91.81C93.3438 91.81 93.3917 91.4265 93.6314 91.3306C95.5971 90.5635 98.1859 90.0361 100.391 90.0361L100.439 90.132ZM105.377 101.542V97.7069C105.377 94.0154 103.46 92.673 100.343 92.673C98.8571 92.673 97.323 92.9127 96.2203 93.3921V105.186C97.4189 105.953 98.8571 106.432 100.439 106.432C103.603 106.432 105.377 104.946 105.329 101.542H105.377Z" fill="#003863"/>
<path d="M118.178 108.59C114.822 108.59 112.905 106.336 112.905 102.165V83.6117C112.905 83.372 113.048 83.2281 113.336 83.2281H115.398C115.637 83.2281 115.781 83.372 115.781 83.6117V102.213C115.781 104.946 116.74 106.001 118.514 106.001C118.945 106.001 119.521 106.001 120.096 105.905C120.384 105.905 120.527 106.049 120.527 106.288V108.062C120.527 108.302 120.384 108.494 120.192 108.494C119.616 108.542 118.849 108.59 118.226 108.59H118.178Z" fill="#003863"/>
<path d="M138.505 90.1316C138.745 90.1316 138.889 90.3234 138.889 90.5631V106.768C138.889 106.768 138.841 107.199 138.601 107.247C136.636 108.11 134.382 108.589 131.985 108.589C127.383 108.589 124.266 106.384 124.266 101.062V90.5631C124.266 90.3234 124.41 90.1316 124.698 90.1316H126.759C126.999 90.1316 127.143 90.3234 127.143 90.5631V100.967C127.143 104.658 128.965 106.049 131.985 106.049C133.471 106.049 134.91 105.761 136.012 105.377V90.5631C136.012 90.3234 136.156 90.1316 136.444 90.1316H138.505Z" fill="#003863"/>
<path d="M150.012 108.59C147.615 108.59 145.17 107.871 143.109 106.336C142.917 106.193 142.917 106.001 143.013 105.761L143.972 104.131C144.115 103.891 144.307 103.843 144.547 104.035C146.225 105.282 148.143 106.001 150.156 106.001C152.505 106.001 154.279 105.042 154.279 103.22C154.279 101.254 152.122 100.823 150.156 100.439C147.663 99.9121 143.348 98.9533 143.348 94.8781C143.348 91.3304 146.752 89.7483 150.252 89.7483C152.457 89.7483 154.423 90.3236 156.341 91.3783C156.58 91.4742 156.628 91.7139 156.485 91.9057L155.526 93.4878C155.526 93.4878 155.19 93.7755 154.998 93.6316C153.56 92.8646 151.834 92.3372 150.108 92.3372C147.663 92.3372 146.177 93.296 146.177 94.8781C146.177 96.7958 148.238 97.3232 150.731 97.8026C153.512 98.3779 157.204 99.145 157.204 103.076C157.204 106.624 154.183 108.542 150.108 108.542L150.012 108.59Z" fill="#003863"/>
<path d="M75.1256 98.6655C75.1256 96.1724 74.1668 93.9671 72.5367 92.6247C72.2491 92.385 71.9135 92.1932 71.5779 92.0014C71.3382 91.8576 71.0985 91.7617 70.8588 91.6659C70.619 91.57 70.3793 91.4741 70.0917 91.3782C69.0369 91.0426 67.8863 90.8508 66.5919 90.8508H48.2299C43.5315 90.8508 39.6482 93.2 39.6482 99.001V102.357C39.6482 107.631 43.2918 110.076 47.7025 110.076C49.0449 110.076 50.675 109.788 51.8256 109.261C51.9215 113 50.2914 114.439 47.5108 114.439C45.5451 114.439 44.0589 113.911 42.6686 112.904C42.3809 112.665 42.0933 112.761 41.9494 113.048L40.4632 115.349C40.2714 115.685 40.2714 115.925 40.5591 116.117C42.5247 117.651 44.778 118.418 47.8464 118.418C53.168 118.418 55.9486 115.11 55.9486 109.644V94.9739H67.0713C69.1808 94.9739 70.8588 96.6519 70.8588 98.7613V103.364C70.8588 104.898 70.0437 106.336 68.6534 106.96C65.9207 108.206 62.9962 106.049 62.9482 103.364C62.9482 103.364 62.9482 99.1928 62.9482 97.8504C62.9482 97.6587 62.5647 97.5628 62.3729 97.6587C61.3661 98.186 59.4964 99.1449 58.9211 99.4805C58.8252 99.5284 58.7293 99.6243 58.7293 99.7681V103.699C58.7293 107.247 61.3182 110.22 64.9139 110.987C65.5371 111.083 66.4001 111.178 67.1192 111.178C71.2902 111.083 74.6942 108.158 75.0777 104.419C75.0777 104.179 75.0777 103.939 75.0777 103.699V98.8572L75.1256 98.6655ZM51.7297 105.329C51.0106 105.905 49.4285 106.24 48.0381 106.24C45.7848 106.24 43.9151 105.329 43.9151 102.357V98.6655C43.9151 95.4533 45.6889 94.5903 48.2299 94.5903C49.3326 94.5903 50.9147 94.7342 51.6818 95.0218V105.329H51.7297Z" fill="#003863"/>
<g style="mix-blend-mode:overlay">
<path d="M75.7961 101.495C75.7961 95.9335 80.3027 91.4269 85.8641 91.4269C91.4254 91.4269 95.932 95.9335 95.932 101.495C95.932 107.056 91.4254 111.563 85.8641 111.563C80.3027 111.563 75.7961 107.056 75.7961 101.495Z" fill="#C6E8FB"/>
</g>
<g style="mix-blend-mode:overlay">
<path d="M71.5779 102.022C71.5779 96.4607 76.0845 91.9541 81.6458 91.9541C87.2071 91.9541 91.7137 96.4607 91.7137 102.022C91.7137 107.583 87.2071 112.09 81.6458 112.09C76.0845 112.09 71.5779 107.583 71.5779 102.022Z" fill="#C6E8FB"/>
</g>
<g style="mix-blend-mode:overlay">
<path d="M72.106 98.9537C72.106 93.3923 76.6125 88.8857 82.1739 88.8857C87.7352 88.8857 92.2418 93.3923 92.2418 98.9537C92.2418 104.515 87.7352 109.022 82.1739 109.022C76.6125 109.022 72.106 104.515 72.106 98.9537Z" fill="#C6E8FB"/>
</g>
<path d="M73.208 100.535C73.208 94.9741 77.7146 90.4675 83.2759 90.4675C88.8373 90.4675 93.3438 94.9741 93.3438 100.535C93.3438 106.097 88.8373 110.603 83.2759 110.603C77.7146 110.603 73.208 106.097 73.208 100.535Z" fill="#41C0F0"/>
<path d="M88.9328 98.4743C89.2684 98.4743 89.4123 98.6661 89.4123 98.9537V102.118C89.4123 102.454 89.2205 102.597 88.9328 102.597H85.433V106.145C85.433 106.481 85.2413 106.625 84.9536 106.625H81.6935C81.3579 106.625 81.2141 106.433 81.2141 106.145V102.597H77.7143C77.3787 102.597 77.2349 102.406 77.2349 102.118V98.9537C77.2349 98.6181 77.4266 98.4743 77.7143 98.4743H81.2141V94.9266C81.2141 94.591 81.4059 94.4471 81.6935 94.4471H84.9536C85.2892 94.4471 85.433 94.6389 85.433 94.9266V98.4743H88.9328Z" fill="white"/>
<path d="M174.271 78.29H172.881V118.418H174.271V78.29Z" fill="#003863"/>
</svg>
