<svg width="326" height="168" viewBox="0 0 326 168" fill="none" xmlns="http://www.w3.org/2000/svg">
<path d="M101.852 0.689645C101.852 0.258655 102.111 6.10352e-05 102.585 6.10352e-05H106.378C106.809 6.10352e-05 107.067 0.258655 107.067 0.689645V43.2284C107.067 43.6594 106.809 43.918 106.378 43.918H102.585C102.111 43.918 101.852 43.6594 101.852 43.2284V24.0062H81.3373V43.2284C81.3373 43.6594 81.0787 43.918 80.6477 43.918H76.855C76.3809 43.918 76.1223 43.6594 76.1223 43.2284V0.689645C76.1223 0.258655 76.3809 6.10352e-05 76.855 6.10352e-05H80.6477C81.0787 6.10352e-05 81.3373 0.258655 81.3373 0.689645V19.2222H101.852V0.689645Z" fill="white"/>
<path d="M140.254 12.1537C140.685 12.1537 140.943 12.4554 140.943 12.8864V41.3317C140.943 41.7196 140.814 42.0644 140.469 42.1937C137.021 43.7453 133.056 44.6073 128.876 44.6073C120.816 44.6073 115.3 40.7283 115.3 31.3327V12.8864C115.3 12.4554 115.558 12.1537 116.032 12.1537H119.653C120.084 12.1537 120.342 12.4554 120.342 12.8864V31.2035C120.342 37.6683 123.531 40.125 128.876 40.125C131.462 40.125 134.048 39.6509 135.944 38.9613V12.8864C135.944 12.4554 136.203 12.1537 136.677 12.1537H140.297H140.254Z" fill="white"/>
<path d="M160.812 11.4643C168.613 11.4643 174.129 16.2483 174.129 24.4802V31.2899C174.129 40.5562 168.397 44.5644 160.424 44.5644C156.502 44.5644 152.063 43.7455 148.572 42.4094C148.141 42.237 148.011 41.9784 148.011 41.5905V0.689584C148.011 0.258594 148.27 0 148.701 0H152.321C152.795 0 153.054 0.258594 153.054 0.689584V13.4038C155.209 12.2832 157.881 11.5074 160.812 11.5074V11.4643ZM169.044 31.2899V24.4802C169.044 18.5757 165.897 15.9466 160.381 15.9466C157.536 15.9466 155.036 16.8086 153.054 18.1447V38.9184C154.95 39.6511 157.665 40.0821 160.294 40.0821C165.768 40.0821 169 37.6685 169 31.2899H169.044Z" fill="white"/>
<path d="M212.703 0.689584C212.703 0.258594 212.962 0 213.436 0H217.056C217.487 0 217.746 0.258594 217.746 0.689584V41.6336C217.746 42.0215 217.616 42.237 217.185 42.4525C213.694 43.7886 209.255 44.6075 205.333 44.6075C197.36 44.6075 191.628 40.5993 191.628 31.333V24.5233C191.628 16.2914 197.144 11.5074 204.945 11.5074C207.833 11.5074 210.548 12.3263 212.703 13.4038V0.689584ZM205.462 40.1683C208.092 40.1683 210.807 39.7373 212.703 39.0046V18.1878C210.721 16.8517 208.221 15.9897 205.376 15.9897C199.86 15.9897 196.713 18.6188 196.713 24.5233V31.333C196.713 37.7978 199.989 40.1683 205.419 40.1683H205.462Z" fill="white"/>
<path d="M249.639 29.7385C249.639 30.2126 249.38 30.4712 248.949 30.4712H228.865V33.0571C228.865 37.6687 232.313 40.1254 236.838 40.1254C241.062 40.1254 243.95 38.4445 246.234 36.6775C246.622 36.4189 246.967 36.5051 247.225 36.8498L248.992 39.1772C249.294 39.5651 249.251 39.8668 248.863 40.1685C245.803 42.7544 241.881 44.6077 236.709 44.6077C230.072 44.6077 223.736 40.815 223.736 33.0571V23.7046C223.736 15.3003 229.986 11.5076 236.752 11.5076C243.519 11.5076 249.596 15.3003 249.596 23.7046V29.7385H249.639ZM236.795 16.033C232.184 16.033 228.865 18.4466 228.865 23.7046V26.2906H244.726V23.7046C244.726 18.4897 241.278 16.033 236.795 16.033Z" fill="white"/>
<path d="M15.7399 54.865C25.4372 54.865 30.9538 60.2524 30.9538 69.217C30.9538 78.1816 25.351 83.6551 15.7399 83.6551H5.48232V98.0933C5.48232 98.5243 5.22372 98.7829 4.79273 98.7829H0.956918C0.525928 98.7829 0.267334 98.5243 0.267334 98.0933V55.5115C0.267334 55.0805 0.525928 54.8219 0.956918 54.8219H15.7399V54.865ZM15.1796 78.8281C22.2478 78.8281 25.6958 75.6387 25.6958 69.2601C25.6958 62.8814 22.2478 59.7352 15.1796 59.7352H5.48232V78.8281H15.1796Z" fill="white"/>
<path d="M48.5386 66.3294C56.0809 66.3294 60.7356 70.3376 60.7356 78.2247V96.628C60.7356 97.0159 60.5632 97.3175 60.1753 97.4468C57.2877 98.4812 52.9347 99.4294 48.3231 99.4294C41.4272 99.4294 35.1348 96.6711 35.1348 89.3442C35.1348 82.8363 40.479 79.5607 48.3231 79.5607C50.8228 79.5607 53.6242 79.9486 55.693 80.2934V78.3109C55.693 73.3545 53.6673 70.8117 48.3231 70.8117C44.8751 70.8117 41.772 71.8029 39.6171 73.0959C39.2292 73.3545 38.9275 73.2683 38.712 72.9235L36.9449 70.3376C36.7725 69.9497 36.6863 69.7342 36.9449 69.4756C39.8326 67.493 43.8408 66.2863 48.5386 66.2863V66.3294ZM48.3662 94.9471C51.1245 94.9471 53.8828 94.3868 55.7361 93.8265V84.6033C53.7535 84.2154 50.8659 83.8706 48.3662 83.8706C42.7633 83.8706 40.2205 85.9825 40.2205 89.3442C40.2205 93.0507 43.6684 94.9471 48.3662 94.9471Z" fill="white"/>
<path d="M80.733 111.066C75.8197 111.066 72.1132 109.514 68.8807 106.842C68.579 106.583 68.579 106.282 68.8376 105.851L70.6047 103.222C70.8633 102.834 71.2081 102.791 71.596 103.092C74.0957 105.118 77.0695 106.54 80.733 106.54C86.2496 106.54 88.8356 103.782 88.6632 97.5326V96.0673C86.3789 97.1879 83.362 97.8343 80.8192 97.8343C73.4492 97.8343 67.6309 93.8261 67.6309 85.2925V79.1725C67.6309 69.9062 73.7078 66.4152 81.3794 66.4152C85.6893 66.4152 89.9992 67.4064 93.1886 68.8287C93.5765 68.958 93.7489 69.2166 93.7489 69.6476V98.0067C93.7489 106.066 89.9562 111.152 80.7761 111.152L80.733 111.066ZM81.164 93.2658C83.9223 93.2658 86.9392 92.5763 88.6632 91.4126V71.9318C86.8961 71.3285 83.7068 70.8975 81.4225 70.8975C76.1645 70.8975 72.7165 73.0524 72.7165 79.1294V85.2494C72.7165 91.154 76.3369 93.2227 81.2071 93.2227L81.164 93.2658Z" fill="white"/>
<path d="M113.23 66.3294C120.773 66.3294 125.427 70.3376 125.427 78.2247V96.628C125.427 97.0159 125.255 97.3175 124.867 97.4468C121.979 98.4812 117.626 99.4294 113.015 99.4294C106.119 99.4294 99.8264 96.6711 99.8264 89.3442C99.8264 82.8363 105.171 79.5607 113.015 79.5607C115.514 79.5607 118.316 79.9486 120.385 80.2934V78.3109C120.385 73.3545 118.359 70.8117 113.015 70.8117C109.567 70.8117 106.464 71.8029 104.309 73.0959C103.921 73.3545 103.619 73.2683 103.404 72.9235L101.637 70.3376C101.464 69.9497 101.378 69.7342 101.637 69.4756C104.524 67.493 108.532 66.2863 113.23 66.2863V66.3294ZM113.058 94.9471C115.816 94.9471 118.574 94.3868 120.428 93.8265V84.6033C118.445 84.2154 115.558 83.8706 113.058 83.8706C107.455 83.8706 104.912 85.9825 104.912 89.3442C104.912 93.0507 108.36 94.9471 113.058 94.9471Z" fill="white"/>
<path d="M162.751 66.3294C170.25 66.3294 175.465 70.6824 175.465 78.8712V98.0934C175.465 98.5244 175.207 98.783 174.776 98.783H171.155C170.681 98.783 170.423 98.5244 170.423 98.0934V78.7419C170.423 73.8286 167.923 70.8979 162.622 70.8979C160.036 70.8979 157.708 71.7168 155.855 72.9667C156.588 74.5613 157.019 76.587 157.019 78.785V98.0503C157.019 98.4813 156.76 98.7399 156.329 98.7399H152.623C152.192 98.7399 151.933 98.4813 151.933 98.0503V78.6988C151.933 73.4838 149.52 70.8548 144.563 70.8548C142.064 70.8548 140.081 71.3289 138.357 71.9754V98.0934C138.357 98.5244 138.098 98.783 137.624 98.783H134.004C133.573 98.783 133.314 98.5244 133.314 98.0934V69.6049C133.314 69.217 133.444 68.9153 133.875 68.7429C137.15 67.2776 140.684 66.3294 144.434 66.3294C148.184 66.3294 151.071 67.45 153.226 69.3463C156.157 67.3638 159.001 66.3294 162.665 66.3294H162.751Z" fill="white"/>
<path d="M208.393 84.5603C208.393 85.0344 208.134 85.293 207.703 85.293H187.619V87.8789C187.619 92.4905 191.067 94.9472 195.592 94.9472C199.816 94.9472 202.703 93.2663 204.988 91.4992C205.376 91.2406 205.72 91.3268 205.979 91.6716L207.746 93.999C208.048 94.3869 208.005 94.6886 207.617 94.9903C204.557 97.5762 200.635 99.4294 195.463 99.4294C188.826 99.4294 182.49 95.6367 182.49 87.8789V78.5264C182.49 70.1221 188.739 66.3294 195.506 66.3294C202.272 66.3294 208.349 70.1221 208.349 78.5264V84.5603H208.393ZM195.549 70.8548C190.937 70.8548 187.619 73.2683 187.619 78.5264V81.1124H203.479V78.5264C203.479 73.3114 200.031 70.8548 195.549 70.8548Z" fill="white"/>
<path d="M216.02 98.783C215.589 98.783 215.331 98.5244 215.331 98.0934V69.6049C215.331 69.217 215.46 68.9153 215.805 68.7429C219.296 67.2776 223.347 66.3294 227.614 66.3294C235.846 66.3294 241.449 70.2083 241.449 79.6039V98.0934C241.449 98.5244 241.19 98.783 240.716 98.783H237.096C236.665 98.783 236.406 98.5244 236.406 98.0934V79.7332C236.406 73.3545 233.131 70.8979 227.614 70.8979C225.028 70.8979 222.27 71.372 220.373 72.0185V98.1365C220.373 98.5675 220.115 98.8261 219.641 98.8261H216.02V98.783Z" fill="white"/>
<path d="M260.37 94.7747C261.06 94.7747 262.223 94.7316 263.301 94.6454C263.775 94.6454 264.034 94.904 264.034 95.335V98.6105C264.034 98.9984 263.861 99.3001 263.43 99.3432C262.31 99.3863 260.931 99.4725 260.112 99.4725C253.992 99.4725 249.423 96.1539 249.423 88.6115V59.9938C249.423 59.5197 249.682 59.2611 250.156 59.2611H253.345C253.733 59.2611 253.948 59.5197 254.035 59.9507L254.466 67.3637H262.439C262.87 67.3637 263.129 67.6223 263.129 68.0533V71.1133C263.129 71.5874 262.87 71.846 262.439 71.846H254.466V88.3529C254.466 92.4042 256.534 94.8178 260.37 94.8178V94.7747Z" fill="white"/>
<path d="M281.359 99.4295C273.084 99.4295 267.869 94.5593 267.869 87.4049V78.5696C267.869 71.372 273.084 66.3726 281.359 66.3726C289.634 66.3726 294.849 71.4151 294.849 78.5696V87.4049C294.849 94.6024 289.677 99.4295 281.359 99.4295ZM281.359 94.9472C286.876 94.9472 289.85 92.0165 289.85 87.4049V78.5696C289.85 73.9149 286.919 70.898 281.359 70.898C275.8 70.898 272.955 73.9149 272.955 78.5696V87.4049C272.955 92.0165 275.886 94.9472 281.359 94.9472Z" fill="white"/>
<path d="M312.519 99.4294C308.296 99.4294 304.029 98.1796 300.365 95.5074C299.978 95.2488 299.978 94.9041 300.193 94.5162L301.874 91.6716C302.133 91.2406 302.434 91.1975 302.865 91.4992C305.796 93.6973 309.201 94.9472 312.692 94.9472C316.786 94.9472 319.932 93.2232 319.932 90.0339C319.932 86.5859 316.14 85.8102 312.692 85.1206C308.253 84.2155 300.71 82.4915 300.71 75.3371C300.71 69.0877 306.658 66.3294 312.821 66.3294C316.7 66.3294 320.148 67.3207 323.51 69.217C323.941 69.3894 323.984 69.7773 323.768 70.1221L322.131 72.8805C321.958 73.2683 321.57 73.3545 321.225 73.139C318.726 71.803 315.709 70.8548 312.606 70.8548C308.296 70.8548 305.71 72.5788 305.71 75.3371C305.71 78.6988 309.33 79.647 313.683 80.509C318.596 81.5003 325.061 82.9225 325.061 89.7753C325.061 96.0246 319.803 99.4294 312.606 99.4294H312.519Z" fill="white"/>
<path d="M258.991 134.771C252.526 134.771 246.923 138.477 244.165 143.908C245.889 144.899 246.88 146.666 246.88 149.036V155.501C246.88 156.277 246.449 156.923 245.759 157.225H245.63C245.027 157.441 244.38 157.613 243.691 157.742C246.19 163.733 252.095 167.957 258.991 167.957C268.128 167.957 275.584 160.544 275.584 151.364C275.584 142.184 268.171 134.771 258.991 134.771Z" fill="#41C0F0"/>
<path d="M191.023 154.381L190.118 152.915C190.118 152.915 189.989 152.743 189.903 152.7C189.817 152.7 189.73 152.7 189.601 152.786C188.739 153.476 187.662 153.821 186.541 153.821C184.688 153.821 183.61 152.7 183.61 150.804V145.933C183.61 144.037 184.688 142.916 186.541 142.916C187.575 142.916 188.61 143.261 189.429 143.865C189.558 143.951 189.644 143.951 189.774 143.951C189.86 143.951 189.946 143.865 189.989 143.778L190.894 142.313C190.894 142.313 190.98 141.882 190.808 141.753C189.601 140.805 188.05 140.287 186.541 140.287C184.041 140.287 181.024 141.71 181.024 145.89V150.847C181.024 154.984 183.912 156.493 186.584 156.493C188.308 156.493 189.817 156.019 191.023 154.984C191.153 154.898 191.239 154.682 191.066 154.424L191.023 154.381Z" fill="white"/>
<path d="M217.357 154.165C218.003 154.165 218.693 154.079 219.21 153.95C219.382 153.907 219.469 153.777 219.469 153.605V147.83C219.469 147.83 219.339 147.442 219.21 147.356C218.693 147.097 218.046 146.925 217.314 146.925C215.676 146.925 214.728 147.657 214.728 149.424V151.536C214.728 153.519 215.719 154.208 217.357 154.208V154.165ZM219.512 140.891C219.512 140.891 219.684 140.632 219.856 140.632H221.796C221.796 140.632 222.141 140.632 222.141 140.934V155.458C222.141 155.458 222.141 155.544 222.098 155.587C222.055 155.631 221.968 155.674 221.882 155.717C220.503 156.234 218.822 156.536 217.314 156.536C214.297 156.536 212.185 154.984 212.185 151.493V149.424C212.185 146.45 214.21 144.597 217.098 144.597C218.003 144.597 218.865 144.813 219.555 145.114V140.934L219.512 140.891Z" fill="white"/>
<path d="M229.252 140.589H224.555C224.555 140.589 224.253 140.632 224.253 140.891V156.105C224.253 156.105 224.296 156.234 224.382 156.234H226.71C226.71 156.234 226.882 156.148 226.882 156.061V152.01C226.882 152.01 226.968 151.752 227.141 151.752H229.166C230.933 151.752 232.312 151.234 233.218 150.286C234.123 149.338 234.812 148.131 234.812 146.062C234.812 144.511 234.424 143.261 233.821 142.442C232.959 141.192 231.838 140.589 229.296 140.589H229.252ZM229.382 149.252H227.097C227.097 149.252 226.839 149.166 226.839 148.993V143.304C226.839 143.304 226.925 143.046 227.097 143.046H229.511C230.373 143.046 230.976 143.261 231.364 143.735C231.752 144.166 232.054 144.726 232.054 145.675C232.054 146.795 231.881 147.485 231.407 148.131C231.019 148.648 230.287 149.209 229.382 149.209V149.252Z" fill="white"/>
<path d="M198.953 147.356C198.953 147.356 198.651 147.485 198.522 147.356C198.177 147.054 197.574 146.882 196.971 146.882C196.109 146.882 195.117 147.528 195.117 148.993V155.846C195.117 155.846 194.945 156.191 194.773 156.191H192.833C192.833 156.191 192.488 156.018 192.488 155.846V144.985C192.488 144.985 192.661 144.64 192.833 144.64H194.686C194.686 144.64 195.031 144.813 195.031 144.985V145.761C195.591 145.114 196.669 144.511 197.919 144.511C198.91 144.511 199.6 144.77 200.289 145.373C200.462 145.502 200.462 145.761 200.289 145.933L198.91 147.356H198.953Z" fill="white"/>
<path d="M245.414 155.501V149.037C245.414 146.149 243.69 144.554 240.673 144.554C238.906 144.554 237.398 144.942 236.234 145.718C236.148 145.761 236.148 145.847 236.234 146.02L237.139 147.528C237.139 147.528 237.268 147.657 237.311 147.657C237.398 147.657 237.441 147.657 237.527 147.614C238.303 147.14 239.38 146.882 240.458 146.882C242.139 146.882 242.785 147.528 242.785 149.166V149.511H242.742C241.837 149.381 241.104 149.338 240.458 149.338C237.311 149.338 235.717 150.631 235.717 152.829C235.717 156.148 239.035 156.493 240.544 156.493C242.052 156.493 243.776 156.234 245.155 155.846C245.285 155.803 245.371 155.674 245.371 155.501H245.414ZM242.785 153.777C242.785 153.777 242.742 153.95 242.656 153.95C242.397 153.993 241.492 154.208 240.587 154.208C239.035 154.208 238.303 153.82 238.303 152.829C238.303 151.838 238.949 151.321 240.544 151.321C241.104 151.321 241.923 151.364 242.656 151.493C242.742 151.493 242.785 151.579 242.785 151.666V153.82V153.777Z" fill="white"/>
<path d="M210.547 149.726C210.547 148.002 210.116 146.666 209.341 145.847C208.522 144.985 207.315 144.554 205.763 144.554C204.039 144.554 202.79 145.071 201.971 146.106C201.152 147.14 200.764 148.735 200.764 150.847C200.764 152.959 201.152 154.295 201.928 155.157C202.703 156.062 203.953 156.493 205.72 156.493C206.97 156.493 208.436 156.277 210.03 155.932C210.159 155.932 210.203 155.803 210.203 155.674V154.122C210.203 154.122 210.159 154.036 210.116 153.993C210.116 153.993 210.03 153.95 209.987 153.95C209.384 153.993 208.565 154.079 208.134 154.079C207.832 154.079 207.53 154.079 207.272 154.122C206.884 154.122 206.539 154.165 206.281 154.165C205.634 154.165 205.117 154.122 204.772 153.993C204.384 153.864 204.126 153.648 203.953 153.346C203.781 153.045 203.738 152.571 203.738 152.226C203.738 151.881 203.781 151.752 203.953 151.752H210.16C210.375 151.752 210.59 151.579 210.59 151.321V149.683L210.547 149.726ZM207.703 149.554C207.703 149.554 207.574 149.64 207.53 149.64H203.91C203.91 149.64 203.781 149.64 203.738 149.554C203.695 149.511 203.652 149.424 203.652 149.381C203.652 148.562 203.867 147.916 204.126 147.528C204.427 147.14 204.988 146.925 205.763 146.925C206.539 146.925 207.013 147.14 207.315 147.485C207.574 147.83 207.746 148.476 207.746 149.338C207.746 149.424 207.746 149.467 207.66 149.511L207.703 149.554Z" fill="white"/>
<path d="M270.713 149.424C270.713 147.916 270.153 146.537 269.119 145.718C268.946 145.589 268.731 145.459 268.559 145.33C268.429 145.244 268.3 145.201 268.128 145.114C267.998 145.028 267.826 144.985 267.653 144.942C267.007 144.727 266.317 144.597 265.542 144.597H254.293C251.405 144.597 249.035 146.02 249.035 149.597V151.666C249.035 154.855 251.276 156.363 253.948 156.363C254.767 156.363 255.758 156.191 256.491 155.846C256.577 158.13 255.543 158.992 253.862 158.992C252.655 158.992 251.75 158.648 250.888 158.044C250.716 157.915 250.543 157.958 250.414 158.13L249.509 159.51C249.509 159.51 249.379 159.854 249.595 159.984C250.802 160.932 252.181 161.406 254.034 161.406C257.267 161.406 258.991 159.38 258.991 156.019V147.054H265.8C267.093 147.054 268.128 148.088 268.128 149.381V152.183C268.128 153.088 267.61 153.993 266.791 154.381C265.111 155.157 263.344 153.82 263.3 152.183C263.3 152.183 263.3 149.64 263.3 148.821C263.3 148.692 263.085 148.649 262.956 148.692C262.309 148.993 261.189 149.597 260.844 149.812C260.758 149.812 260.758 149.898 260.758 149.985V152.355C260.758 154.51 262.352 156.32 264.55 156.794C264.938 156.881 265.455 156.924 265.886 156.924C268.429 156.881 270.498 155.07 270.757 152.786C270.757 152.657 270.757 152.484 270.757 152.355V149.424H270.713ZM256.405 153.519C255.974 153.864 255.025 154.079 254.163 154.079C252.784 154.079 251.664 153.519 251.664 151.709V149.467C251.664 147.528 252.741 146.968 254.293 146.968C254.982 146.968 255.931 147.054 256.405 147.226V153.519Z" fill="white"/>
<path d="M100.947 142.572C105.041 142.572 107.972 144.554 107.972 149.338V152.786C108.015 157.01 105.213 159.467 101.162 159.467C99.6967 159.467 98.3175 159.122 97.24 158.518V166.836C97.24 167.052 97.1538 167.181 96.8952 167.181H95.042C94.8265 167.181 94.6972 167.052 94.6972 166.836L94.5679 144.08C94.5679 144.08 94.611 143.735 94.8265 143.649C96.5935 142.96 98.9209 142.486 100.903 142.486L100.947 142.572ZM105.386 152.829V149.381C105.386 146.063 103.662 144.856 100.86 144.856C99.5243 144.856 98.1451 145.071 97.1538 145.502V156.105C98.2313 156.794 99.5243 157.225 100.947 157.225C103.791 157.225 105.386 155.889 105.343 152.829H105.386Z" fill="white"/>
<path d="M116.893 159.165C113.876 159.165 112.152 157.139 112.152 153.389V136.71C112.152 136.495 112.282 136.365 112.54 136.365H114.393C114.609 136.365 114.738 136.495 114.738 136.71V153.433C114.738 155.889 115.6 156.837 117.195 156.837C117.583 156.837 118.1 156.837 118.617 156.751C118.876 156.751 119.005 156.88 119.005 157.096V158.691C119.005 158.906 118.876 159.078 118.703 159.078C118.186 159.122 117.497 159.165 116.936 159.165H116.893Z" fill="white"/>
<path d="M135.167 142.572C135.382 142.572 135.512 142.744 135.512 142.96V157.527C135.512 157.527 135.469 157.915 135.253 157.958C133.486 158.734 131.46 159.165 129.305 159.165C125.168 159.165 122.366 157.182 122.366 152.398V142.96C122.366 142.744 122.496 142.572 122.754 142.572H124.608C124.823 142.572 124.952 142.744 124.952 142.96V152.312C124.952 155.631 126.59 156.881 129.305 156.881C130.641 156.881 131.934 156.622 132.926 156.277V142.96C132.926 142.744 133.055 142.572 133.314 142.572H135.167Z" fill="white"/>
<path d="M145.511 159.165C143.356 159.165 141.158 158.518 139.305 157.139C139.133 157.01 139.133 156.837 139.219 156.622L140.081 155.156C140.21 154.941 140.383 154.898 140.598 155.07C142.107 156.191 143.831 156.837 145.641 156.837C147.753 156.837 149.347 155.975 149.347 154.338C149.347 152.571 147.408 152.183 145.641 151.838C143.4 151.364 139.521 150.502 139.521 146.838C139.521 143.649 142.581 142.227 145.727 142.227C147.709 142.227 149.477 142.744 151.2 143.692C151.416 143.778 151.459 143.994 151.33 144.166L150.468 145.588C150.468 145.588 150.166 145.847 149.994 145.718C148.701 145.028 147.149 144.554 145.598 144.554C143.4 144.554 142.064 145.416 142.064 146.838C142.064 148.562 143.917 149.036 146.158 149.467C148.658 149.985 151.976 150.674 151.976 154.208C151.976 157.398 149.261 159.122 145.598 159.122L145.511 159.165Z" fill="white"/>
<path d="M78.1904 150.243C78.1904 148.002 77.3284 146.019 75.863 144.813C75.6045 144.597 75.3028 144.425 75.0011 144.252C74.7856 144.123 74.5701 144.037 74.3546 143.951C74.1391 143.864 73.9236 143.778 73.665 143.692C72.7168 143.39 71.6824 143.218 70.5188 143.218H54.0118C49.7881 143.218 46.2971 145.33 46.2971 150.545V153.562C46.2971 158.303 49.5726 160.501 53.5378 160.501C54.7445 160.501 56.2099 160.242 57.2443 159.768C57.3305 163.13 55.8651 164.423 53.3654 164.423C51.5983 164.423 50.2622 163.949 49.0124 163.043C48.7538 162.828 48.4952 162.914 48.3659 163.173L47.0298 165.241C46.8574 165.543 46.8574 165.759 47.116 165.931C48.8831 167.31 50.9087 168 53.6671 168C58.451 168 60.9508 165.026 60.9508 160.113V146.924H70.9498C72.8461 146.924 74.3546 148.433 74.3546 150.329V154.467C74.3546 155.846 73.6219 157.139 72.372 157.699C69.9154 158.82 67.2863 156.88 67.2432 154.467C67.2432 154.467 67.2432 150.717 67.2432 149.51C67.2432 149.338 66.8984 149.252 66.7261 149.338C65.821 149.812 64.1401 150.674 63.6229 150.976C63.5367 151.019 63.4505 151.105 63.4505 151.234V154.768C63.4505 157.958 65.7779 160.63 69.0103 161.319C69.5706 161.406 70.3464 161.492 70.9929 161.492C74.7425 161.406 77.8025 158.777 78.1473 155.415C78.1473 155.199 78.1473 154.984 78.1473 154.768V150.415L78.1904 150.243ZM57.1581 156.234C56.5116 156.751 55.0893 157.053 53.8394 157.053C51.8138 157.053 50.1329 156.234 50.1329 153.562V150.243C50.1329 147.355 51.7276 146.58 54.0118 146.58C55.0031 146.58 56.4254 146.709 57.115 146.968V156.234H57.1581Z" fill="white"/>
<g style="mix-blend-mode:overlay">
<path d="M78.7505 152.786C78.7505 147.787 82.8018 143.736 87.8013 143.736C92.8008 143.736 96.8521 147.787 96.8521 152.786C96.8521 157.786 92.8008 161.837 87.8013 161.837C82.8018 161.837 78.7505 157.786 78.7505 152.786Z" fill="#C6E8FB"/>
</g>
<g style="mix-blend-mode:overlay">
<path d="M75.0005 153.26C75.0005 148.261 79.0518 144.21 84.0513 144.21C89.0508 144.21 93.1021 148.261 93.1021 153.26C93.1021 158.26 89.0508 162.311 84.0513 162.311C79.0518 162.311 75.0005 158.26 75.0005 153.26Z" fill="#C6E8FB"/>
</g>
<g style="mix-blend-mode:overlay">
<path d="M75.4751 150.502C75.4751 145.502 79.5264 141.451 84.5259 141.451C89.5254 141.451 93.5767 145.502 93.5767 150.502C93.5767 155.501 89.5254 159.553 84.5259 159.553C79.5264 159.553 75.4751 155.501 75.4751 150.502Z" fill="#C6E8FB"/>
</g>
<path d="M76.4663 151.924C76.4663 146.925 80.5176 142.873 85.5171 142.873C90.5166 142.873 94.5679 146.925 94.5679 151.924C94.5679 156.924 90.5166 160.975 85.5171 160.975C80.5176 160.975 76.4663 156.924 76.4663 151.924Z" fill="#41C0F0"/>
<path d="M90.6018 150.071C90.9035 150.071 91.0328 150.244 91.0328 150.502V153.347C91.0328 153.648 90.8604 153.778 90.6018 153.778H87.4556V156.967C87.4556 157.269 87.2832 157.398 87.0246 157.398H84.0939C83.7922 157.398 83.6629 157.226 83.6629 156.967V153.778H80.5167C80.215 153.778 80.0857 153.605 80.0857 153.347V150.502C80.0857 150.2 80.2581 150.071 80.5167 150.071H83.6629V146.882C83.6629 146.58 83.8353 146.451 84.0939 146.451H87.0246C87.3263 146.451 87.4556 146.623 87.4556 146.882V150.071H90.6018Z" fill="white"/>
<path d="M167.319 130.461H166.069V166.535H167.319V130.461Z" fill="white"/>
</svg>
