<svg width="63" height="40" viewBox="0 0 63 40" fill="none" xmlns="http://www.w3.org/2000/svg">
<path d="M57.939 0.250488H4.73783C2.25954 0.250488 0.250488 2.25954 0.250488 4.73784V35.2518C0.250488 37.7301 2.25954 39.7391 4.73783 39.7391H57.939C60.4173 39.7391 62.4263 37.7301 62.4263 35.2518V4.73784C62.4263 2.25954 60.4173 0.250488 57.939 0.250488Z" fill="white"/>
<path d="M57.9389 0.500913C60.2765 0.500913 62.1758 2.40021 62.1758 4.7378V35.2622C62.1758 37.5998 60.2765 39.4991 57.9389 39.4991H4.7378C2.40021 39.4991 0.500913 37.5998 0.500913 35.2622V4.7378C0.500913 2.40021 2.40021 0.500913 4.7378 0.500913H57.9389ZM57.9389 0H4.7378C2.11844 0 0 2.11845 0 4.7378V35.2622C0 37.8815 2.11844 40 4.7378 40H57.9389C60.5583 40 62.6768 37.8815 62.6768 35.2622V4.7378C62.6768 2.11845 60.5583 0 57.9389 0Z" fill="#D3D4D4"/>
<path d="M29.9296 13.4306L27.112 26.6005H23.6995L26.5171 13.4306H29.9296ZM44.2682 21.9357L46.0632 16.9892L47.0963 21.9357H44.2682ZM48.0773 26.6005H51.2289L48.4738 13.4306H45.5623C44.9257 13.4306 44.3517 13.8063 44.1117 14.4011L38.9982 26.6109H42.5777L43.2873 24.649H47.6598L48.0773 26.6109V26.6005ZM39.1861 22.301C39.1965 18.8259 34.3856 18.638 34.417 17.0727C34.4274 16.6031 34.8761 16.1022 35.8571 15.9665C36.3476 15.9039 37.6938 15.8517 39.2174 16.5613L39.8122 13.7646C38.9878 13.4724 37.9338 13.1802 36.6293 13.1802C33.2586 13.1802 30.8897 14.9647 30.8688 17.5319C30.848 19.4312 32.5594 20.4852 33.8534 21.1113C35.1788 21.7583 35.6275 22.1757 35.6171 22.7497C35.6171 23.6367 34.5526 24.0229 33.5821 24.0437C31.8706 24.075 30.8793 23.5846 30.0861 23.2089L29.4704 26.0996C30.2636 26.4648 31.735 26.7779 33.2586 26.7987C36.838 26.7987 39.1861 25.0351 39.1965 22.2905L39.1861 22.301ZM25.0875 13.4202L19.567 26.59H15.9667L13.2534 16.0813C13.0864 15.4343 12.9403 15.1943 12.4394 14.9229C11.6254 14.4742 10.2688 14.0568 9.0791 13.8063L9.16259 13.4202H14.9648C15.7058 13.4202 16.3632 13.9107 16.5406 14.7664L17.9807 22.3845L21.5289 13.4202H25.1083H25.0875Z" fill="#143A63"/>
</svg>
